<?xml version="1.0" encoding="UTF-8" standalone="no"?>
<!DOCTYPE svg PUBLIC "-//W3C//DTD SVG 1.1//EN" "http://www.w3.org/Graphics/SVG/1.1/DTD/svg11.dtd">
<svg width="100%" height="100%" viewBox="0 0 1749 473" version="1.1" xmlns="http://www.w3.org/2000/svg" xmlns:xlink="http://www.w3.org/1999/xlink" xml:space="preserve" xmlns:serif="http://www.serif.com/" style="fill-rule:evenodd;clip-rule:evenodd;stroke-linecap:square;stroke-linejoin:round;stroke-miterlimit:2;">
    <g transform="matrix(1.23528,0,0,1.23528,-185.296,-418.512)">
        <g transform="matrix(1.25358,0,0,1.34151,-216.553,-135.951)">
            <path d="M447.373,434.181L415.783,434.181L415.783,447.822C407.646,438.206 396.638,432.168 380.365,432.168C351.168,432.168 327.955,454.755 327.955,487.181C327.955,520.054 351.168,541.97 380.365,541.97C396.399,541.97 407.407,536.156 415.783,526.54L415.783,582.447L447.373,582.447L447.373,434.181ZM389.937,514.911C373.424,514.911 361.219,503.282 361.219,487.181C361.219,470.856 373.424,459.227 389.937,459.227C406.689,459.227 418.655,470.856 418.655,487.181C418.655,503.282 406.689,514.911 389.937,514.911Z" style="fill:rgb(86,146,166);fill-rule:nonzero;stroke:rgb(35,40,48);stroke-width:5.2px;"/>
            <path d="M581.628,539.957L581.628,434.181L550.039,434.181L550.039,485.392C550.039,504.624 539.988,515.805 523.714,515.805C508.398,515.805 500.501,505.295 500.501,486.286L500.501,434.181L468.911,434.181L468.911,494.561C468.911,527.881 488.535,542.193 511.509,542.193C528.022,542.193 541.902,534.143 550.039,522.291L550.039,539.957L581.628,539.957Z" style="fill:rgb(86,146,166);fill-rule:nonzero;stroke:rgb(35,40,48);stroke-width:5.2px;"/>
            <path d="M661.081,541.97C695.781,541.97 722.106,518.489 722.106,486.957C722.106,455.426 695.781,432.168 661.081,432.168C626.38,432.168 600.056,455.426 600.056,486.957C600.056,518.936 626.38,541.97 661.081,541.97ZM661.081,514.911C644.807,514.911 632.842,503.059 632.842,486.957C632.842,470.856 644.807,459.227 661.081,459.227C677.594,459.227 689.32,470.856 689.32,486.957C689.32,503.059 677.594,514.911 661.081,514.911Z" style="fill:rgb(86,146,166);fill-rule:nonzero;stroke:rgb(35,40,48);stroke-width:5.2px;"/>
            <path d="M788.636,541.97C804.909,541.97 815.917,535.932 824.054,526.316L824.054,539.957L855.644,539.957L855.644,390.126L824.054,390.126L824.054,447.599C815.917,437.983 804.67,432.168 788.636,432.168C759.439,432.168 736.226,454.755 736.226,486.957C736.226,519.831 759.439,541.97 788.636,541.97ZM798.208,514.911C781.695,514.911 769.49,503.059 769.49,486.957C769.49,470.856 781.695,459.227 798.208,459.227C814.96,459.227 826.926,470.856 826.926,486.957C826.926,503.059 814.96,514.911 798.208,514.911Z" style="fill:rgb(86,146,166);fill-rule:nonzero;stroke:rgb(35,40,48);stroke-width:5.2px;"/>
            <rect x="881.49" y="507.307" width="34.461" height="32.65" style="fill:rgb(86,146,166);fill-rule:nonzero;stroke:rgb(35,40,48);stroke-width:5.2px;"/>
            <rect x="941.797" y="390.126" width="31.59" height="149.831" style="fill:rgb(86,146,166);fill-rule:nonzero;stroke:rgb(35,40,48);stroke-width:5.2px;"/>
            <path d="M1032.74,420.54L1032.74,392.81L1000.67,392.81L1000.67,420.54L1032.74,420.54ZM1032.74,539.957L1032.74,434.181L1001.15,434.181L1001.15,539.957L1032.74,539.957Z" style="fill:rgb(86,146,166);fill-rule:nonzero;stroke:rgb(35,40,48);stroke-width:5.2px;"/>
            <path d="M1126.31,541.97C1155.51,541.97 1178.72,519.831 1178.72,486.957C1178.72,454.755 1155.51,432.168 1126.31,432.168C1110.28,432.168 1099.03,437.983 1090.89,447.599L1090.89,390.126L1059.3,390.126L1059.3,539.957L1090.89,539.957L1090.89,526.316C1099.03,535.932 1110.04,541.97 1126.31,541.97ZM1116.74,514.911C1099.98,514.911 1088.02,503.059 1088.02,486.957C1088.02,470.856 1099.98,459.227 1116.74,459.227C1133.25,459.227 1145.45,470.856 1145.45,486.957C1145.45,503.059 1133.25,514.911 1116.74,514.911Z" style="fill:rgb(86,146,166);fill-rule:nonzero;stroke:rgb(35,40,48);stroke-width:5.2px;"/>
            <path d="M1311.06,490.312C1311.06,455.202 1288.09,432.168 1251.71,432.168C1218.44,432.168 1192.84,455.649 1192.84,486.957C1192.84,519.16 1218.68,541.97 1254.58,541.97C1285.45,541.97 1305.8,524.974 1310.58,504.848L1278.51,504.848C1274.92,512.004 1267.03,516.7 1254.1,516.7C1240.7,516.7 1228.5,509.767 1224.91,495.679L1311.06,495.679L1311.06,490.312ZM1225.15,477.341C1228.5,463.476 1239.74,457.215 1252.67,457.215C1266.79,457.215 1276.84,464.147 1279.47,477.341L1225.15,477.341Z" style="fill:rgb(86,146,166);fill-rule:nonzero;stroke:rgb(35,40,48);stroke-width:5.2px;"/>
            <path d="M1366.58,434.181L1366.58,410.253L1334.99,410.253L1334.99,434.181L1318.24,434.181L1318.24,459.227L1334.99,459.227L1334.99,539.957L1366.58,539.957L1366.58,459.227L1388.6,459.227L1388.6,434.181L1366.58,434.181Z" style="fill:rgb(86,146,166);fill-rule:nonzero;stroke:rgb(35,40,48);stroke-width:5.2px;"/>
        </g>
        <g transform="matrix(1.25358,0,0,1.34151,-225.553,-144.951)">
            <path d="M447.373,434.181L415.783,434.181L415.783,447.822C407.646,438.206 396.638,432.168 380.365,432.168C351.168,432.168 327.955,454.755 327.955,487.181C327.955,520.054 351.168,541.97 380.365,541.97C396.399,541.97 407.407,536.156 415.783,526.54L415.783,582.447L447.373,582.447L447.373,434.181ZM389.937,514.911C373.424,514.911 361.219,503.282 361.219,487.181C361.219,470.856 373.424,459.227 389.937,459.227C406.689,459.227 418.655,470.856 418.655,487.181C418.655,503.282 406.689,514.911 389.937,514.911Z" style="fill-rule:nonzero;"/>
            <path d="M581.628,539.957L581.628,434.181L550.039,434.181L550.039,485.392C550.039,504.624 539.988,515.805 523.714,515.805C508.398,515.805 500.501,505.295 500.501,486.286L500.501,434.181L468.911,434.181L468.911,494.561C468.911,527.881 488.535,542.193 511.509,542.193C528.022,542.193 541.902,534.143 550.039,522.291L550.039,539.957L581.628,539.957Z" style="fill-rule:nonzero;"/>
            <path d="M661.081,541.97C695.781,541.97 722.106,518.489 722.106,486.957C722.106,455.426 695.781,432.168 661.081,432.168C626.38,432.168 600.056,455.426 600.056,486.957C600.056,518.936 626.38,541.97 661.081,541.97ZM661.081,514.911C644.807,514.911 632.842,503.059 632.842,486.957C632.842,470.856 644.807,459.227 661.081,459.227C677.594,459.227 689.32,470.856 689.32,486.957C689.32,503.059 677.594,514.911 661.081,514.911Z" style="fill-rule:nonzero;"/>
            <path d="M788.636,541.97C804.909,541.97 815.917,535.932 824.054,526.316L824.054,539.957L855.644,539.957L855.644,390.126L824.054,390.126L824.054,447.599C815.917,437.983 804.67,432.168 788.636,432.168C759.439,432.168 736.226,454.755 736.226,486.957C736.226,519.831 759.439,541.97 788.636,541.97ZM798.208,514.911C781.695,514.911 769.49,503.059 769.49,486.957C769.49,470.856 781.695,459.227 798.208,459.227C814.96,459.227 826.926,470.856 826.926,486.957C826.926,503.059 814.96,514.911 798.208,514.911Z" style="fill-rule:nonzero;"/>
            <rect x="881.49" y="507.307" width="34.461" height="32.65" style="fill-rule:nonzero;"/>
            <rect x="941.797" y="390.126" width="31.59" height="149.831" style="fill-rule:nonzero;"/>
            <path d="M1032.74,420.54L1032.74,392.81L1000.67,392.81L1000.67,420.54L1032.74,420.54ZM1032.74,539.957L1032.74,434.181L1001.15,434.181L1001.15,539.957L1032.74,539.957Z" style="fill-rule:nonzero;"/>
            <path d="M1126.31,541.97C1155.51,541.97 1178.72,519.831 1178.72,486.957C1178.72,454.755 1155.51,432.168 1126.31,432.168C1110.28,432.168 1099.03,437.983 1090.89,447.599L1090.89,390.126L1059.3,390.126L1059.3,539.957L1090.89,539.957L1090.89,526.316C1099.03,535.932 1110.04,541.97 1126.31,541.97ZM1116.74,514.911C1099.98,514.911 1088.02,503.059 1088.02,486.957C1088.02,470.856 1099.98,459.227 1116.74,459.227C1133.25,459.227 1145.45,470.856 1145.45,486.957C1145.45,503.059 1133.25,514.911 1116.74,514.911Z" style="fill-rule:nonzero;"/>
            <path d="M1311.06,490.312C1311.06,455.202 1288.09,432.168 1251.71,432.168C1218.44,432.168 1192.84,455.649 1192.84,486.957C1192.84,519.16 1218.68,541.97 1254.58,541.97C1285.45,541.97 1305.8,524.974 1310.58,504.848L1278.51,504.848C1274.92,512.004 1267.03,516.7 1254.1,516.7C1240.7,516.7 1228.5,509.767 1224.91,495.679L1311.06,495.679L1311.06,490.312ZM1225.15,477.341C1228.5,463.476 1239.74,457.215 1252.67,457.215C1266.79,457.215 1276.84,464.147 1279.47,477.341L1225.15,477.341Z" style="fill-rule:nonzero;"/>
            <path d="M1366.58,434.181L1366.58,410.253L1334.99,410.253L1334.99,434.181L1318.24,434.181L1318.24,459.227L1334.99,459.227L1334.99,539.957L1366.58,539.957L1366.58,459.227L1388.6,459.227L1388.6,434.181L1366.58,434.181Z" style="fill-rule:nonzero;"/>
        </g>
        <g transform="matrix(0.916889,-0.0761827,0.076394,0.919432,373.595,-144.066)">
            <path d="M334.872,928.514C335.162,928.514 335.524,928.73 335.742,928.514C336.466,928.441 337.336,928.369 337.843,927.863C339.22,926.852 340.524,925.985 341.394,924.684C342.481,923.528 343.205,922.299 344.075,921.071C344.872,919.698 345.741,918.47 346.466,917.169C346.683,916.663 346.828,916.663 346.901,916.591C346.973,916.88 346.901,917.602 346.901,917.747C346.901,918.975 346.973,920.204 347.118,921.215C347.48,922.877 347.915,924.467 348.64,925.479C349.509,926.852 350.379,927.502 351.248,927.863C352.553,928.441 353.784,928.803 355.523,928.514C356.9,928.369 357.915,927.936 359.001,926.852C359.291,926.563 359.871,925.985 360.378,925.695C361.393,924.901 361.248,924.684 361.61,924.467C362.335,923.528 363.132,922.372 363.929,921.432C364.943,920.204 365.233,919.264 366.247,917.891C366.61,917.458 366.682,917.024 366.537,916.663C366.247,916.374 365.668,916.591 365.813,916.013C366.392,915.579 366.175,916.808 366.537,916.302C366.61,916.229 366.682,916.013 366.682,915.796C366.827,915.724 366.827,915.579 367.045,915.579C367.262,915.94 367.117,916.302 367.552,916.229C367.697,915.94 368.421,915.001 368.784,913.989C369.943,912.544 370.957,909.871 370.812,910.232C370.305,909.726 370.595,908.425 369.726,908.787L369.218,908.787C369.218,908.642 369.218,908.425 369.581,908.136C369.653,908.064 370.088,907.269 369.508,907.269C369.436,907.125 368.566,908.425 368.131,908.931C367.552,909.509 366.682,910.593 366.392,911.171C366.465,911.822 365.74,911.966 365.595,912.111C365.378,912.4 365.161,912.689 364.943,912.906C363.349,915.362 362.045,916.88 360.451,918.831C359.074,920.637 357.697,922.299 355.958,923.817C355.234,924.467 354.509,924.901 353.784,925.045C353.205,924.539 352.987,924.106 352.77,923.6C352.48,922.733 352.625,921.432 352.553,920.493C352.625,919.698 352.48,919.264 352.263,918.614C352.335,918.108 352.335,917.747 352.48,917.241C352.553,915.362 352.77,913.556 353.06,911.822C353.35,910.521 353.567,909.076 353.857,907.92C353.422,908.064 354.074,906.836 354.364,906.258C354.654,904.885 354.871,903.584 355.378,902.283C355.813,900.26 356.176,899.393 356.61,898.092C356.9,897.37 357.407,895.925 357.407,895.635C357.552,894.985 357.77,894.335 358.132,893.612C358.349,892.745 358.712,892.023 358.857,891.155C359.509,889.566 359.871,888.048 360.306,886.892C360.958,884.724 361.03,883.279 359.581,882.557C358.349,881.978 357.045,882.412 355.668,883.279C355.234,884.074 354.944,884.508 354.871,885.086C354.654,885.953 354.364,886.82 354.074,887.253C354.292,888.048 353.639,888.265 353.639,888.482C353.422,889.493 352.987,890.433 352.77,891.517C352.697,891.661 352.697,891.95 352.625,892.095C352.19,893.251 351.9,894.479 351.393,895.563C351.176,896.647 350.814,897.587 350.451,898.598C349.944,900.188 349.509,901.85 348.712,903.44C348.205,903.295 347.988,903.295 347.843,903.223C346.176,902.572 344.365,901.994 342.626,901.85C342.481,901.85 342.336,901.85 342.118,901.705C340.814,901.633 339.582,901.85 337.988,902.428C337.698,902.717 337.046,903.006 336.611,903.44C335.814,904.234 335.09,905.029 334.727,905.752C334.293,906.041 333.858,906.691 333.496,907.269C333.423,907.703 333.133,908.064 333.061,908.353C331.901,909.654 331.394,911.171 330.959,912.761C330.525,913.773 330.38,914.712 330.307,915.724C330.017,916.808 329.728,917.891 329.873,918.975C329.655,920.276 329.51,921.649 329.873,922.877C329.945,924.25 330.525,925.479 331.322,926.707C332.191,928.08 333.496,928.441 334.872,928.514ZM335.597,924.684C335.09,924.178 334.945,923.311 334.872,922.444C334.872,921.215 334.872,920.059 335.09,918.759C335.235,918.108 335.307,917.458 335.524,916.663C335.814,914.568 336.611,912.689 337.553,910.738C338.423,908.931 339.727,907.558 340.959,906.619C341.611,906.258 342.046,905.969 342.553,905.896C344.075,905.607 345.524,905.896 346.611,906.836L346.973,907.269L347.046,907.775C346.683,908.498 346.393,909.004 346.104,909.654C345.524,910.738 344.872,911.966 344.292,913.195C343.495,914.495 342.626,915.94 341.684,917.241C340.307,919.264 338.858,921.215 337.481,922.95C336.901,923.672 336.394,924.25 335.597,924.684Z" style="fill:rgb(218,62,14);fill-rule:nonzero;stroke:rgb(218,62,14);stroke-width:2.2px;stroke-linecap:butt;"/>
            <path d="M371.465,930.248C372.189,930.32 373.638,930.248 374.798,930.031C375.957,929.742 377.116,929.381 377.914,928.947L379.435,928.152L379.87,927.936C380.812,927.502 381.609,926.707 382.479,926.129C382.696,925.912 383.058,925.334 383.421,925.334C384.435,924.467 385.522,923.528 386.536,922.299C387.333,921.432 387.913,920.493 388.855,919.337C389.435,918.759 390.811,917.024 391.753,915.362C392.695,913.773 393.637,912.111 393.782,911.677L393.927,910.738C394,910.232 394.362,909.726 394.072,909.365C394.072,908.787 393.492,908.931 393.492,908.425C393.637,908.064 394,907.486 393.203,907.269C392.768,907.558 393.058,907.775 392.695,908.136C392.478,908.353 391.464,909.726 390.449,911.171C389.507,912.689 388.348,914.206 387.985,914.568C386.826,916.013 385.667,917.53 384.435,918.759C383.565,920.059 382.551,920.926 381.464,921.866C380.739,922.661 379.725,923.239 379.073,923.961C378.203,924.828 376.537,925.912 374.291,926.707C373.566,926.852 372.769,926.996 372.189,926.852C371.392,926.707 370.74,926.129 370.45,925.406C370.015,925.479 370.015,924.828 370.015,924.467C369.581,923.6 369.508,922.661 369.436,921.649C369.581,920.276 369.726,918.975 370.015,917.747C370.088,917.458 370.16,917.169 370.45,916.88C371.754,917.169 372.914,917.024 373.566,917.024C374.435,916.88 375.16,916.808 376.03,916.591C377.334,916.013 378.348,915.435 379.29,914.857C380.45,913.989 381.464,912.978 382.551,911.822C383.493,910.593 384.29,909.076 384.652,907.775C384.797,906.691 384.797,905.896 384.652,904.74C384.507,904.234 383.783,904.234 384.073,903.44C383.783,902.717 383.421,902.283 382.623,901.705C381.392,901.055 380.377,900.621 378.856,900.621C377.261,900.766 376.247,901.055 374.508,902.067C373.783,902.428 372.914,903.295 372.189,903.801C371.682,904.668 370.957,905.102 370.378,905.896C369.653,906.691 368.711,907.92 367.987,909.293C367.117,910.521 366.537,911.822 365.958,913.267C365.088,915.362 364.653,917.458 364.291,919.264C364.074,921.071 364.291,922.877 364.653,924.467C364.943,925.768 365.668,926.852 366.61,928.08C367.479,928.803 368.131,929.308 368.856,929.67C369.436,930.031 370.523,930.176 371.465,930.248ZM371.682,913.628C372.117,912.4 372.769,910.81 373.928,909.293C374.508,908.136 375.522,907.125 376.247,906.041C377.044,905.391 377.769,904.668 378.348,904.451C379.435,904.09 380.015,904.451 379.942,906.041C379.87,907.269 379.218,908.425 378.276,909.509C377.479,910.521 376.537,911.533 375.305,912.111C374.218,912.978 372.696,913.339 371.682,913.628Z" style="fill:rgb(218,62,14);fill-rule:nonzero;stroke:rgb(218,62,14);stroke-width:2.2px;stroke-linecap:butt;"/>
            <path d="M393.203,928.803C393.782,928.441 394.507,928.369 395.014,928.152C395.594,927.863 395.884,927.502 395.956,926.852C396.029,926.129 396.391,925.334 396.681,924.467C396.826,923.311 397.26,922.01 397.623,920.782C398.057,919.698 398.42,918.759 398.71,917.891C398.854,917.241 398.999,916.663 399.507,916.013C399.724,915.435 400.014,914.857 400.231,914.423C400.594,913.773 401.101,912.978 401.318,912.689C401.97,911.388 402.622,910.593 403.419,909.654C404.217,908.498 405.231,907.775 406.028,906.908C407.332,905.969 408.202,905.463 409.361,905.607C409.434,905.752 409.434,905.607 409.579,905.607C409.941,905.607 410.158,905.029 410.376,904.451C410.231,904.234 410.158,904.234 409.941,904.162C410.231,903.873 410.231,903.801 410.231,903.656C410.231,903.44 410.303,903.295 409.868,903.006C409.796,902.934 409.361,902.861 408.999,902.861C408.637,902.717 408.129,902.717 407.767,902.861C407.695,902.717 407.55,902.717 407.332,902.717C406.463,902.861 405.014,903.223 404.144,903.801C403.057,904.451 402.188,905.102 401.68,905.752C401.101,906.258 400.304,907.125 399.796,907.92C399.362,908.425 398.927,909.004 398.565,909.654C398.13,910.16 397.84,910.738 397.55,911.171C397.623,909.871 398.13,907.703 398.565,906.33C398.854,905.102 398.927,904.09 399.144,902.861C399.289,902.356 398.999,902.283 398.71,902.067C398.42,901.633 397.768,901.994 397.405,901.416C396.318,901.489 395.159,901.489 394.29,902.717C393.855,903.44 393.782,904.234 393.71,905.029C393.203,906.908 392.768,908.787 392.406,910.593C392.116,911.822 392.116,912.906 391.971,914.134C391.681,915.362 391.536,916.591 391.246,917.747C391.174,918.397 391.101,919.048 390.884,919.698C390.811,920.493 390.667,921.143 390.667,921.866C390.449,922.661 390.449,923.528 390.449,924.178C390.377,924.901 390.377,925.479 390.449,926.129L390.377,926.563C390.739,926.707 391.101,926.635 391.246,926.996C391.464,927.285 390.884,927.863 391.246,928.08C391.536,928.803 392.478,928.514 393.203,928.803Z" style="fill:rgb(218,62,14);fill-rule:nonzero;stroke:rgb(218,62,14);stroke-width:2.2px;stroke-linecap:butt;"/>
            <path d="M435.519,930.248C436.244,930.32 437.693,930.248 438.852,930.031C440.012,929.742 441.171,929.381 441.968,928.947L443.49,928.152L443.925,927.936C444.867,927.502 445.664,926.707 446.533,926.129C446.751,925.912 447.113,925.334 447.475,925.334C448.49,924.467 449.576,923.528 450.591,922.299C451.388,921.432 451.968,920.493 452.91,919.337C453.489,918.759 454.866,917.024 455.808,915.362C456.75,913.773 457.692,912.111 457.837,911.677L457.982,910.738C458.054,910.232 458.417,909.726 458.127,909.365C458.127,908.787 457.547,908.931 457.547,908.425C457.692,908.064 458.054,907.486 457.257,907.269C456.822,907.558 457.112,907.775 456.75,908.136C456.533,908.353 455.518,909.726 454.504,911.171C453.562,912.689 452.402,914.206 452.04,914.568C450.881,916.013 449.721,917.53 448.49,918.759C447.62,920.059 446.606,920.926 445.519,921.866C444.794,922.661 443.78,923.239 443.128,923.961C442.258,924.828 440.591,925.912 438.345,926.707C437.621,926.852 436.824,926.996 436.244,926.852C435.447,926.707 434.795,926.129 434.505,925.406C434.07,925.479 434.07,924.828 434.07,924.467C433.635,923.6 433.563,922.661 433.49,921.649C433.635,920.276 433.78,918.975 434.07,917.747C434.142,917.458 434.215,917.169 434.505,916.88C435.809,917.169 436.968,917.024 437.621,917.024C438.49,916.88 439.215,916.808 440.084,916.591C441.388,916.013 442.403,915.435 443.345,914.857C444.504,913.989 445.519,912.978 446.606,911.822C447.548,910.593 448.345,909.076 448.707,907.775C448.852,906.691 448.852,905.896 448.707,904.74C448.562,904.234 447.837,904.234 448.127,903.44C447.837,902.717 447.475,902.283 446.678,901.705C445.446,901.055 444.432,900.621 442.91,900.621C441.316,900.766 440.302,901.055 438.563,902.067C437.838,902.428 436.968,903.295 436.244,903.801C435.737,904.668 435.012,905.102 434.432,905.896C433.708,906.691 432.766,907.92 432.041,909.293C431.172,910.521 430.592,911.822 430.012,913.267C429.143,915.362 428.708,917.458 428.346,919.264C428.128,921.071 428.346,922.877 428.708,924.467C428.998,925.768 429.722,926.852 430.664,928.08C431.534,928.803 432.186,929.308 432.911,929.67C433.49,930.031 434.577,930.176 435.519,930.248ZM435.737,913.628C436.171,912.4 436.824,910.81 437.983,909.293C438.563,908.136 439.577,907.125 440.302,906.041C441.099,905.391 441.823,904.668 442.403,904.451C443.49,904.09 444.07,904.451 443.997,906.041C443.925,907.269 443.272,908.425 442.33,909.509C441.533,910.521 440.591,911.533 439.36,912.111C438.273,912.978 436.751,913.339 435.737,913.628Z" style="fill:rgb(218,62,14);fill-rule:nonzero;stroke:rgb(218,62,14);stroke-width:2.2px;stroke-linecap:butt;"/>
            <path d="M460.518,929.887C461.822,930.031 462.474,930.031 462.982,929.887C463.634,929.742 464.648,929.597 465.663,928.947C466.387,928.514 466.677,928.152 467.547,927.719C468.344,927.141 469.141,926.346 469.865,925.695C470.59,924.901 471.242,924.178 472.112,923.311C472.546,922.733 473.198,922.01 473.633,921.215C474.285,920.637 474.793,920.059 475.227,919.409C475.952,918.614 476.387,918.108 476.677,917.458L478.778,914.495C479.647,913.195 480.082,912.111 480.444,910.81C480.589,909.943 480.372,909.654 480.444,909.004C480.517,908.064 480.155,907.269 479.865,907.269C479.575,907.269 479.43,907.775 478.995,908.136C478.633,908.498 478.126,909.509 477.039,910.593C476.532,911.388 475.952,912.111 475.227,912.906C474.43,913.989 473.561,915.001 472.909,916.013C471.822,917.241 470.59,918.614 469.431,920.059C468.561,921.071 467.112,922.083 466.387,923.094C464.938,924.25 463.779,925.117 462.474,925.768C461.822,925.985 461.243,925.912 460.808,925.768C460.518,925.479 460.156,925.045 460.301,924.539C460.083,923.817 460.011,923.094 460.011,922.444C460.011,920.782 460.083,919.264 460.735,917.169C460.88,915.94 461.243,914.568 461.46,912.978C461.677,912.038 462.112,910.955 462.257,909.943C462.547,908.787 462.764,907.775 463.126,906.908C463.851,906.691 464.793,906.619 465.59,906.619C466.46,906.474 467.474,906.474 468.416,906.33C469.431,906.258 469.938,906.258 470.59,905.969C470.952,905.463 471.387,905.029 471.749,904.162C471.822,903.873 471.822,903.656 471.822,903.584C471.677,902.934 471.604,902.717 471.242,902.356C470.59,902.067 469.865,902.067 469.141,902.283C468.199,902.356 467.257,902.356 466.387,902.356C465.808,902.356 465.518,902.428 464.938,902.428C465.3,901.127 465.808,899.899 466.025,899.032C466.46,898.02 466.967,896.864 467.329,895.78C467.039,895.13 467.691,895.419 468.126,893.901C469.213,891.517 468.344,892.962 469.431,890.722C469.865,889.927 470.155,889.349 470.3,888.915C470.445,888.121 470.01,887.542 469.431,886.82C469.431,886.675 469.141,886.675 468.996,886.675C467.981,886.531 467.329,886.459 466.967,886.459C466.387,886.459 465.952,886.675 465.228,887.181C464.721,887.831 464.286,888.699 463.996,889.493C463.634,890.216 463.344,890.794 463.126,891.517C463.054,891.95 462.909,892.384 462.619,892.745L462.112,893.901C461.75,895.13 461.17,896.358 460.735,897.587C460.083,898.959 459.721,900.26 459.214,901.633C459.069,902.067 459.069,902.356 458.706,902.934C457.402,903.223 456.822,903.295 455.228,903.656C454.649,903.873 453.852,904.09 453.199,904.451C452.91,904.74 453.055,905.752 452.33,905.969C452.185,906.836 452.04,907.92 453.199,907.775C453.562,907.775 454.069,907.703 455.156,907.558C456.243,907.486 455.808,907.269 457.257,907.269C456.678,908.498 456.17,911.46 456.17,911.677C455.663,913.195 455.301,914.857 455.156,916.591C454.939,918.397 454.794,920.059 454.794,921.432C454.721,921.793 454.721,922.083 454.866,922.444C454.866,923.094 455.083,923.961 455.373,925.045C455.736,926.129 456.243,927.141 457.257,927.936C457.764,928.514 458.634,929.164 459.503,929.597C459.938,929.67 460.083,929.742 460.518,929.887Z" style="fill:rgb(218,62,14);fill-rule:nonzero;stroke:rgb(218,62,14);stroke-width:2.2px;stroke-linecap:butt;"/>
            <path d="M480.372,929.597L480.807,929.597C482.328,929.308 483.125,928.803 483.705,927.936C484.285,927.141 484.792,926.274 485.444,925.406C485.806,924.828 486.024,924.178 486.314,923.672C487.473,921.504 488.85,919.626 489.719,917.891L490.371,916.808C490.589,918.759 490.806,919.337 490.879,920.276C491.096,922.299 491.676,924.178 492.4,925.768C492.618,926.129 492.763,926.635 493.052,926.635C493.487,927.936 494.574,928.08 495.226,928.514C495.806,928.73 496.313,928.803 496.748,928.803C498.487,928.803 500.878,928.08 502.327,926.274C502.69,925.985 502.979,925.768 503.124,925.479C503.921,924.467 504.429,923.311 505.153,922.083C505.733,921.071 506.24,919.915 506.747,918.831C507.4,917.747 507.762,916.663 508.197,915.362C508.776,913.339 509.283,911.388 509.646,909.365C509.791,908.425 510.008,907.269 510.081,906.33C510.37,905.318 510.153,904.234 509.718,903.44C509.573,903.006 509.573,902.861 509.211,902.717C508.921,902.861 508.776,902.356 508.414,902.283C508.052,902.067 507.834,901.994 507.4,901.85C506.965,901.85 505.805,901.705 505.226,901.85C504.284,902.067 503.849,902.572 503.921,903.006C504.429,903.584 504.574,903.801 504.863,904.523C504.936,905.029 504.791,905.463 504.936,905.969L504.863,907.269C504.719,907.558 504.791,907.775 504.863,908.353C504.791,909.293 504.284,910.232 504.066,911.388C504.066,911.677 503.921,912.111 503.559,912.689C503.414,913.628 502.835,914.712 502.69,915.724C502.11,917.241 501.748,918.759 500.806,920.059C500.154,921.504 499.284,922.877 498.342,924.178C497.762,924.901 497.328,925.117 496.893,924.25C496.458,923.672 496.313,922.95 496.096,922.299C495.661,920.782 495.661,918.975 495.371,917.241C495.371,915.724 495.299,914.206 495.154,912.689C495.226,912.038 495.226,911.46 494.574,910.81C493.922,910.304 492.69,909.943 491.386,910.738C491.024,910.955 490.444,911.171 490.082,911.171C489.719,911.533 489.357,911.966 488.85,912.327C488.198,912.978 487.763,913.773 487.328,914.568C486.531,915.724 485.806,916.808 485.227,917.747C484.792,918.614 484.14,919.409 483.633,920.276C483.27,920.926 483.053,921.504 482.401,922.299C482.111,923.239 481.459,923.311 481.531,921.793C481.676,921.432 481.749,920.204 482.111,918.975C482.111,917.602 482.401,916.663 482.618,915.435C483.053,913.556 483.56,911.677 483.995,909.726C484.357,907.92 484.72,906.908 485.372,905.102C485.589,904.162 486.096,903.295 486.169,902.428C486.024,902.067 485.806,901.994 485.444,901.705C484.285,901.055 482.111,901.705 481.241,903.006C480.807,903.801 480.227,904.523 480.01,905.318C479.213,907.486 478.923,908.787 478.343,911.099C477.763,913.267 477.474,915.362 477.184,917.53C477.111,918.975 476.677,920.493 476.894,922.01C476.677,923.817 476.749,925.695 477.474,927.141C477.763,927.285 477.763,927.719 478.198,928.08C478.488,928.441 479.575,929.308 480.372,929.597Z" style="fill:rgb(218,62,14);fill-rule:nonzero;stroke:rgb(218,62,14);stroke-width:2.2px;stroke-linecap:butt;"/>
            <path d="M519.355,928.441C521.022,927.719 522.254,926.346 523.051,925.334C524.5,923.311 526.094,921.215 526.601,920.493C527.761,918.975 527.906,918.614 528.196,918.18L528.848,917.53C528.703,918.831 528.848,919.409 528.92,920.204C529.065,921.071 529.282,922.299 530.007,923.311C530.659,924.25 531.311,925.117 532.108,925.912C532.833,926.346 533.485,926.707 534.282,926.852C535.369,927.213 536.094,927.213 537.905,926.996C539.209,926.707 540.224,926.346 541.456,925.479C541.818,925.117 542.253,924.901 542.832,924.178C543.195,923.094 543.63,923.239 543.919,922.95C544.716,922.01 545.441,920.926 546.238,919.915C547.47,918.831 546.745,919.264 547.76,917.891C548.05,917.458 548.484,917.169 548.847,916.229C548.919,915.94 549.716,915.001 550.223,913.989C551.383,912.544 552.397,909.871 552.252,910.232C551.745,909.726 552.107,908.425 551.238,908.787L550.658,908.787C550.658,908.642 550.658,908.425 551.02,908.136C551.238,908.064 551.528,907.269 550.948,907.269C550.876,907.125 550.006,908.425 549.571,908.931C549.136,909.509 548.195,910.593 547.832,911.171C547.905,911.822 547.18,911.966 547.035,912.111C546.89,912.4 546.6,912.689 546.455,912.906C544.789,915.362 544.499,915.579 542.977,917.53C541.456,919.337 540.151,920.926 538.412,922.444C537.76,923.094 536.963,923.6 536.239,923.672C536.021,923.817 535.369,923.672 535.007,923.6C534.572,923.311 534.572,922.95 534.427,922.444C534.282,921.504 533.992,920.565 534.065,919.409C534.137,918.18 534.137,916.88 534.427,915.579C533.992,915.146 534.717,914.206 534.572,913.628C534.934,912.689 535.152,911.677 535.297,910.738C535.369,910.304 535.659,910.16 535.586,909.726C535.876,908.642 536.456,907.558 536.963,906.33C536.601,905.463 536.239,905.102 535.731,904.885C534.862,905.391 535.297,904.162 533.413,904.523L533.268,904.523C532.181,904.885 531.311,904.668 530.587,904.234C529.282,903.295 527.543,902.861 525.804,902.572C525.297,903.006 524.79,902.572 524.283,902.572C523.703,902.572 523.123,902.717 522.254,902.934C521.239,903.223 520.37,904.09 519.718,904.451C519.211,905.318 518.921,905.102 518.269,905.969C518.196,906.691 517.399,907.125 517.037,907.558C516.457,908.425 515.877,909.293 515.443,910.304C515.225,910.81 514.863,911.388 514.573,912.111C514.138,912.906 513.848,913.845 513.631,914.568C513.269,915.073 513.196,915.435 513.124,915.94C512.979,916.302 512.762,916.663 512.689,917.169C511.965,918.975 511.965,920.782 511.82,922.661L511.965,924.106C512.182,924.901 512.979,926.563 514.283,927.719C515.66,928.803 517.616,929.164 519.355,928.441ZM517.182,923.961C517.037,923.528 517.037,922.661 517.327,921.504C517.327,921.143 517.327,921.143 517.399,920.926C517.616,918.759 518.703,916.374 519.5,914.423C520.515,912.038 521.674,909.943 522.761,908.136C523.486,907.269 524.065,906.691 524.935,906.33C526.022,906.041 526.964,906.258 527.833,906.691C528.413,906.908 529.138,907.486 529.355,907.92C529.645,908.425 529.282,909.293 528.775,910.16C528.051,911.388 527.326,912.4 526.022,914.134C525.152,915.362 524.138,916.591 523.486,917.891C523.123,918.831 521.964,919.626 521.384,920.493C520.37,921.793 519.5,922.95 518.703,923.817C518.341,924.178 517.544,924.828 517.182,923.961Z" style="fill:rgb(218,62,14);fill-rule:nonzero;stroke:rgb(218,62,14);stroke-width:2.2px;stroke-linecap:butt;"/>
            <path d="M554.064,928.73C554.499,928.73 555.078,928.152 555.73,928.441C557.18,928.08 558.701,927.285 560.078,926.129C561.31,924.901 562.397,923.528 562.687,921.793C563.121,920.493 563.121,918.975 562.469,917.747C561.817,916.013 560.585,914.712 558.846,913.989L557.18,912.978C556.672,912.761 556.093,912.4 555.441,912.327L554.064,911.533C553.701,911.388 553.774,910.955 554.064,910.738C555.006,909.726 555.948,908.931 556.962,908.353C557.18,908.136 557.469,907.486 557.904,907.558C558.991,906.836 560.295,906.041 561.962,905.318C562.759,905.102 563.484,905.029 563.991,904.09C564.426,902.717 563.701,902.067 562.904,901.705C561.817,900.838 560.005,900.621 557.687,901.85C557.18,902.067 556.672,902.428 556.093,902.717C555.078,903.44 554.136,904.162 553.194,904.74C552.035,905.752 551.02,906.619 550.078,908.064C549.571,908.787 549.209,909.365 548.919,909.943C548.557,911.46 548.702,912.761 549.354,913.773C550.151,915.001 551.31,915.724 552.687,916.013C553.122,916.013 553.557,916.591 554.136,916.663C555.296,916.88 556.527,917.458 557.469,917.891C558.339,918.397 558.919,918.831 558.991,919.409C558.991,921.504 557.397,922.661 555.658,923.239C554.209,923.528 552.904,923.817 551.745,923.817C551.093,923.961 550.513,923.817 549.861,923.961C549.209,923.961 548.484,923.672 547.687,923.961C547.253,924.106 546.963,924.539 546.818,925.045C546.745,925.406 546.166,925.695 546.818,926.274C546.818,926.635 546.818,927.141 547.253,927.502C547.397,927.574 547.832,927.719 547.977,927.863C548.412,928.152 549.136,928.369 550.078,928.514C551.02,928.73 552.035,928.803 554.064,928.73Z" style="fill:rgb(218,62,14);fill-rule:nonzero;stroke:rgb(218,62,14);stroke-width:2.2px;stroke-linecap:butt;"/>
            <path d="M593.41,928.441C595.076,927.719 596.308,926.346 597.105,925.334C598.554,923.311 600.148,921.215 600.656,920.493C601.815,918.975 601.96,918.614 602.25,918.18L602.902,917.53C602.757,918.831 602.902,919.409 602.974,920.204C603.119,921.071 603.337,922.299 604.061,923.311C604.713,924.25 605.365,925.117 606.163,925.912C606.887,926.346 607.539,926.707 608.336,926.852C609.423,927.213 610.148,927.213 611.959,926.996C613.264,926.707 614.278,926.346 615.51,925.479C615.872,925.117 616.307,924.901 616.887,924.178C617.249,923.094 617.684,923.239 617.973,922.95C618.771,922.01 619.495,920.926 620.292,919.915C621.524,918.831 620.799,919.264 621.814,917.891C622.104,917.458 622.538,917.169 622.901,916.229C622.973,915.94 623.77,915.001 624.277,913.989C625.437,912.544 626.451,909.871 626.306,910.232C625.799,909.726 626.161,908.425 625.292,908.787L624.712,908.787C624.712,908.642 624.712,908.425 625.075,908.136C625.292,908.064 625.582,907.269 625.002,907.269C624.93,907.125 624.06,908.425 623.625,908.931C623.191,909.509 622.249,910.593 621.886,911.171C621.959,911.822 621.234,911.966 621.089,912.111C620.944,912.4 620.654,912.689 620.51,912.906C618.843,915.362 618.553,915.579 617.031,917.53C615.51,919.337 614.206,920.926 612.467,922.444C611.814,923.094 611.017,923.6 610.293,923.672C610.075,923.817 609.423,923.672 609.061,923.6C608.626,923.311 608.626,922.95 608.481,922.444C608.336,921.504 608.046,920.565 608.119,919.409C608.191,918.18 608.191,916.88 608.481,915.579C608.046,915.146 608.771,914.206 608.626,913.628C608.988,912.689 609.206,911.677 609.351,910.738C609.423,910.304 609.713,910.16 609.641,909.726C609.93,908.642 610.51,907.558 611.017,906.33C610.655,905.463 610.293,905.102 609.785,904.885C608.916,905.391 609.351,904.162 607.467,904.523L607.322,904.523C606.235,904.885 605.365,904.668 604.641,904.234C603.337,903.295 601.598,902.861 599.858,902.572C599.351,903.006 598.844,902.572 598.337,902.572C597.757,902.572 597.177,902.717 596.308,902.934C595.294,903.223 594.424,904.09 593.772,904.451C593.265,905.318 592.975,905.102 592.323,905.969C592.25,906.691 591.453,907.125 591.091,907.558C590.511,908.425 589.931,909.293 589.497,910.304C589.279,910.81 588.917,911.388 588.627,912.111C588.192,912.906 587.903,913.845 587.685,914.568C587.323,915.073 587.25,915.435 587.178,915.94C587.033,916.302 586.816,916.663 586.743,917.169C586.019,918.975 586.019,920.782 585.874,922.661L586.019,924.106C586.236,924.901 587.033,926.563 588.337,927.719C589.714,928.803 591.671,929.164 593.41,928.441ZM591.236,923.961C591.091,923.528 591.091,922.661 591.381,921.504C591.381,921.143 591.381,921.143 591.453,920.926C591.671,918.759 592.757,916.374 593.554,914.423C594.569,912.038 595.728,909.943 596.815,908.136C597.54,907.269 598.119,906.691 598.989,906.33C600.076,906.041 601.018,906.258 601.887,906.691C602.467,906.908 603.192,907.486 603.409,907.92C603.699,908.425 603.337,909.293 602.829,910.16C602.105,911.388 601.38,912.4 600.076,914.134C599.206,915.362 598.192,916.591 597.54,917.891C597.177,918.831 596.018,919.626 595.438,920.493C594.424,921.793 593.554,922.95 592.757,923.817C592.395,924.178 591.598,924.828 591.236,923.961Z" style="fill:rgb(218,62,14);fill-rule:nonzero;stroke:rgb(218,62,14);stroke-width:2.2px;stroke-linecap:butt;"/>
            <path d="M646.45,930.32C646.957,930.32 647.682,930.248 647.61,930.248C648.914,930.031 650.653,929.019 651.74,927.936C652.175,927.502 652.609,926.996 653.189,926.635C654.348,925.479 654.276,925.334 654.566,925.045C655.508,923.961 656.305,922.877 656.957,921.793C658.044,920.565 658.116,919.842 659.131,918.47C659.493,917.891 659.928,917.241 660.363,916.663C660.435,916.591 660.435,916.013 661.16,915.435C661.087,915.146 661.305,914.568 661.667,914.423C662.899,912.761 663.044,912.038 663.478,911.099C663.478,909.871 663.696,909.004 663.044,909.004C663.189,908.353 663.044,907.269 662.464,907.269C662.391,907.125 661.522,908.498 661.087,909.004C660.58,909.654 659.71,910.81 659.421,911.46C659.493,912.038 658.841,912.111 658.624,912.4C658.479,912.689 658.116,912.906 657.971,913.267C656.232,915.796 655.145,917.602 653.334,919.409C651.957,921.432 650.58,923.094 648.914,924.684C648.044,925.406 646.523,926.707 645.871,926.635C645.001,926.635 644.711,925.768 644.566,925.334C644.204,923.817 644.132,923.094 644.132,920.782C644.132,919.698 644.276,918.47 644.494,917.458C644.566,917.024 644.276,916.808 644.132,916.374C644.639,916.013 644.711,915.579 644.784,915.146C645.001,913.773 645.218,912.4 645.508,910.955C645.943,909.076 646.233,907.486 646.45,905.752C646.45,905.463 646.088,905.318 646.45,904.74C646.378,903.873 646.233,903.584 646.015,902.934C645.074,901.633 643.914,901.199 642.465,901.199C641.523,901.416 640.581,901.705 639.784,902.283C639.059,902.572 638.262,902.861 637.755,903.44C635.364,905.607 633.263,908.136 631.016,910.955C630.147,912.111 629.277,913.339 628.553,914.423C628.48,914.568 628.19,914.857 627.828,914.857C628.045,913.339 628.625,911.966 629.132,910.593C629.857,908.642 630.654,906.33 631.161,904.523C631.596,903.801 631.668,903.295 631.523,902.934C631.741,902.572 631.234,902.067 630.871,901.633C629.857,902.283 629.929,901.416 629.712,901.416C628.698,901.199 627.393,901.489 626.814,902.428C625.799,904.162 625.437,905.102 624.93,906.908C624.64,907.486 624.277,908.931 624.277,909.076L623.843,910.593C623.843,910.521 622.973,912.111 622.973,913.339C622.031,916.374 622.031,917.169 621.741,917.747C621.741,918.108 621.524,918.397 621.596,918.759C621.669,919.337 621.452,919.698 621.162,920.204C620.799,922.083 620.437,924.178 620.437,926.274C620.365,926.563 620.654,926.635 620.654,926.852C621.307,927.213 621.307,928.152 622.104,928.514C622.756,928.73 623.625,928.514 624.205,928.514C625.364,927.719 626.306,926.707 626.669,925.334C626.814,924.828 627.176,924.25 627.611,923.817C628.842,921.793 629.929,919.842 631.451,917.602C632.176,916.302 633.842,913.556 634.277,913.556C635.799,911.46 637.393,909.509 639.422,907.703C639.929,907.125 640.581,906.691 640.219,908.425C639.784,910.232 639.277,912.978 638.914,915.94C638.842,916.663 638.842,917.169 638.625,917.747C638.552,919.409 638.625,921.071 638.697,922.877C639.059,924.539 639.567,925.912 640.291,927.141C640.653,927.213 640.581,927.719 640.871,927.936C641.451,928.369 641.885,928.803 642.61,929.381C643.914,930.248 644.566,930.32 646.45,930.32Z" style="fill:rgb(218,62,14);fill-rule:nonzero;stroke:rgb(218,62,14);stroke-width:2.2px;stroke-linecap:butt;"/>
            <path d="M663.333,928.514C663.623,928.514 663.986,928.73 664.203,928.514C664.928,928.441 665.797,928.369 666.304,927.863C667.681,926.852 668.985,925.985 669.855,924.684C670.942,923.528 671.666,922.299 672.536,921.071C673.333,919.698 674.202,918.47 674.927,917.169C675.144,916.663 675.289,916.663 675.362,916.591C675.434,916.88 675.362,917.602 675.362,917.747C675.362,918.975 675.434,920.204 675.579,921.215C675.941,922.877 676.376,924.467 677.101,925.479C677.97,926.852 678.84,927.502 679.709,927.863C681.014,928.441 682.245,928.803 683.985,928.514C685.361,928.369 686.376,927.936 687.463,926.852C687.752,926.563 688.332,925.985 688.839,925.695C689.854,924.901 689.709,924.684 690.071,924.467C690.796,923.528 691.593,922.372 692.39,921.432C693.404,920.204 693.694,919.264 694.709,917.891C695.071,917.458 695.143,917.024 694.998,916.663C694.709,916.374 694.129,916.591 694.274,916.013C694.854,915.579 694.636,916.808 694.998,916.302C695.071,916.229 695.143,916.013 695.143,915.796C695.288,915.724 695.288,915.579 695.506,915.579C695.723,915.94 695.578,916.302 696.013,916.229C696.158,915.94 696.882,915.001 697.245,913.989C698.404,912.544 699.419,909.871 699.274,910.232C698.766,909.726 699.056,908.425 698.187,908.787L697.679,908.787C697.679,908.642 697.679,908.425 698.042,908.136C698.114,908.064 698.549,907.269 697.969,907.269C697.897,907.125 697.027,908.425 696.593,908.931C696.013,909.509 695.143,910.593 694.854,911.171C694.926,911.822 694.201,911.966 694.056,912.111C693.839,912.4 693.622,912.689 693.404,912.906C691.81,915.362 690.506,916.88 688.912,918.831C687.535,920.637 686.158,922.299 684.419,923.817C683.695,924.467 682.97,924.901 682.245,925.045C681.666,924.539 681.448,924.106 681.231,923.6C680.941,922.733 681.086,921.432 681.014,920.493C681.086,919.698 680.941,919.264 680.724,918.614C680.796,918.108 680.796,917.747 680.941,917.241C681.014,915.362 681.231,913.556 681.521,911.822C681.811,910.521 682.028,909.076 682.318,907.92C681.883,908.064 682.535,906.836 682.825,906.258C683.115,904.885 683.332,903.584 683.84,902.283C684.274,900.26 684.637,899.393 685.071,898.092C685.361,897.37 685.868,895.925 685.868,895.635C686.013,894.985 686.231,894.335 686.593,893.612C686.81,892.745 687.173,892.023 687.318,891.155C687.97,889.566 688.332,888.048 688.767,886.892C689.419,884.724 689.491,883.279 688.042,882.557C686.81,881.978 685.506,882.412 684.129,883.279C683.695,884.074 683.405,884.508 683.332,885.086C683.115,885.953 682.825,886.82 682.535,887.253C682.753,888.048 682.101,888.265 682.101,888.482C681.883,889.493 681.448,890.433 681.231,891.517C681.159,891.661 681.159,891.95 681.086,892.095C680.651,893.251 680.362,894.479 679.854,895.563C679.637,896.647 679.275,897.587 678.912,898.598C678.405,900.188 677.97,901.85 677.173,903.44C676.666,903.295 676.449,903.295 676.304,903.223C674.637,902.572 672.826,901.994 671.087,901.85C670.942,901.85 670.797,901.85 670.579,901.705C669.275,901.633 668.043,901.85 666.449,902.428C666.159,902.717 665.507,903.006 665.072,903.44C664.275,904.234 663.551,905.029 663.189,905.752C662.754,906.041 662.319,906.691 661.957,907.269C661.884,907.703 661.594,908.064 661.522,908.353C660.363,909.654 659.855,911.171 659.421,912.761C658.986,913.773 658.841,914.712 658.768,915.724C658.479,916.808 658.189,917.891 658.334,918.975C658.116,920.276 657.971,921.649 658.334,922.877C658.406,924.25 658.986,925.479 659.783,926.707C660.652,928.08 661.957,928.441 663.333,928.514ZM664.058,924.684C663.551,924.178 663.406,923.311 663.333,922.444C663.333,921.215 663.333,920.059 663.551,918.759C663.696,918.108 663.768,917.458 663.986,916.663C664.275,914.568 665.072,912.689 666.014,910.738C666.884,908.931 668.188,907.558 669.42,906.619C670.072,906.258 670.507,905.969 671.014,905.896C672.536,905.607 673.985,905.896 675.072,906.836L675.434,907.269L675.507,907.775C675.144,908.498 674.855,909.004 674.565,909.654C673.985,910.738 673.333,911.966 672.753,913.195C671.956,914.495 671.087,915.94 670.145,917.241C668.768,919.264 667.319,921.215 665.942,922.95C665.362,923.672 664.855,924.25 664.058,924.684Z" style="fill:rgb(218,62,14);fill-rule:nonzero;stroke:rgb(218,62,14);stroke-width:2.2px;stroke-linecap:butt;"/>
            <path d="M699.926,930.248C700.65,930.32 702.1,930.248 703.259,930.031C704.418,929.742 705.578,929.381 706.375,928.947L707.896,928.152L708.331,927.936C709.273,927.502 710.07,926.707 710.94,926.129C711.157,925.912 711.519,925.334 711.882,925.334C712.896,924.467 713.983,923.528 714.997,922.299C715.794,921.432 716.374,920.493 717.316,919.337C717.896,918.759 719.273,917.024 720.215,915.362C721.156,913.773 722.098,912.111 722.243,911.677L722.388,910.738C722.461,910.232 722.823,909.726 722.533,909.365C722.533,908.787 721.954,908.931 721.954,908.425C722.098,908.064 722.461,907.486 721.664,907.269C721.229,907.558 721.519,907.775 721.156,908.136C720.939,908.353 719.925,909.726 718.91,911.171C717.968,912.689 716.809,914.206 716.447,914.568C715.287,916.013 714.128,917.53 712.896,918.759C712.027,920.059 711.012,920.926 709.925,921.866C709.201,922.661 708.186,923.239 707.534,923.961C706.665,924.828 704.998,925.912 702.752,926.707C702.027,926.852 701.23,926.996 700.65,926.852C699.853,926.707 699.201,926.129 698.911,925.406C698.477,925.479 698.477,924.828 698.477,924.467C698.042,923.6 697.969,922.661 697.897,921.649C698.042,920.276 698.187,918.975 698.477,917.747C698.549,917.458 698.621,917.169 698.911,916.88C700.216,917.169 701.375,917.024 702.027,917.024C702.897,916.88 703.621,916.808 704.491,916.591C705.795,916.013 706.809,915.435 707.751,914.857C708.911,913.989 709.925,912.978 711.012,911.822C711.954,910.593 712.751,909.076 713.113,907.775C713.258,906.691 713.258,905.896 713.113,904.74C712.969,904.234 712.244,904.234 712.534,903.44C712.244,902.717 711.882,902.283 711.085,901.705C709.853,901.055 708.838,900.621 707.317,900.621C705.723,900.766 704.708,901.055 702.969,902.067C702.244,902.428 701.375,903.295 700.65,903.801C700.143,904.668 699.419,905.102 698.839,905.896C698.114,906.691 697.172,907.92 696.448,909.293C695.578,910.521 694.998,911.822 694.419,913.267C693.549,915.362 693.114,917.458 692.752,919.264C692.535,921.071 692.752,922.877 693.114,924.467C693.404,925.768 694.129,926.852 695.071,928.08C695.94,928.803 696.593,929.308 697.317,929.67C697.897,930.031 698.984,930.176 699.926,930.248ZM700.143,913.628C700.578,912.4 701.23,910.81 702.389,909.293C702.969,908.136 703.983,907.125 704.708,906.041C705.505,905.391 706.23,904.668 706.809,904.451C707.896,904.09 708.476,904.451 708.404,906.041C708.331,907.269 707.679,908.425 706.737,909.509C705.94,910.521 704.998,911.533 703.766,912.111C702.679,912.978 701.158,913.339 700.143,913.628Z" style="fill:rgb(218,62,14);fill-rule:nonzero;stroke:rgb(218,62,14);stroke-width:2.2px;stroke-linecap:butt;"/>
            <path d="M721.954,929.019C722.171,928.947 722.388,928.803 722.678,928.514C722.968,927.936 723.258,927.719 723.548,927.141C723.838,926.346 723.62,925.768 723.982,925.045C724.49,923.817 724.852,922.444 725.287,921.215C726.011,918.975 727.098,916.663 728.33,914.423C729.707,912.038 731.011,909.943 732.75,908.353C733.692,907.486 734.707,906.619 735.576,906.041C736.59,907.197 737.532,907.703 738.474,907.197L739.054,906.908L739.779,906.258C739.924,905.969 740.358,905.391 740.358,904.451C740.576,903.223 740.141,903.006 739.996,902.356C738.909,901.199 737.46,901.055 735.431,901.489L735.141,901.633C733.982,901.85 732.823,902.572 731.736,903.584C731.373,903.873 731.228,904.74 730.576,904.668C729.634,905.607 728.765,906.836 727.75,908.064C727.461,908.425 727.461,908.642 726.953,909.293C726.736,909.365 726.663,909.654 725.794,911.099C726.519,908.136 726.446,907.92 726.736,906.474C726.953,905.391 727.316,904.523 727.098,903.584C727.026,903.295 726.663,903.006 726.446,902.861C725.866,902.861 725.866,901.994 724.417,902.572C723.982,902.717 723.04,903.006 722.606,903.873C722.243,904.451 722.098,904.885 721.954,905.752C721.519,906.619 721.736,906.836 721.301,907.92C721.664,908.064 721.664,908.353 721.446,908.498C721.084,908.931 721.301,909.943 721.084,910.232C720.867,911.388 720.649,912.327 720.359,913.339C720.432,914.568 719.997,915.724 719.707,916.88C719.925,917.891 719.635,918.614 719.562,919.409C719.49,920.059 719.78,920.637 719.2,921.143C718.91,922.661 718.765,924.106 718.838,925.406C718.838,926.635 719.273,927.863 720.07,928.514C720.649,928.947 721.446,928.947 721.954,929.019Z" style="fill:rgb(218,62,14);fill-rule:nonzero;stroke:rgb(218,62,14);stroke-width:2.2px;stroke-linecap:butt;"/>
            <path d="M746.155,928.803C746.952,928.947 747.532,928.947 748.474,928.803C749.416,928.73 750.503,928.441 751.3,928.08C752.387,927.574 753.256,927.213 754.416,926.346C754.488,926.346 754.633,926.274 754.633,926.129C754.995,925.479 755.43,925.479 755.937,924.901C756.155,924.901 756.589,924.178 756.734,923.961C757.459,923.311 758.039,922.877 758.256,922.299C758.256,922.01 757.966,921.793 758.039,921.504C758.111,921.215 758.401,921.071 758.763,920.926C758.981,920.926 758.763,921.215 758.981,921.215C759.27,920.782 759.343,920.493 759.126,920.204C758.908,919.915 759.126,919.626 758.908,919.264C758.546,918.975 758.401,918.831 757.966,918.975C757.821,919.048 757.676,919.337 757.459,919.626C757.097,920.059 756.517,920.493 756.227,920.782C755.285,921.143 754.778,922.083 753.474,922.95C752.242,923.817 751.735,924.106 750.72,924.467C749.778,924.828 748.909,924.901 748.039,924.901C747.532,925.045 747.097,924.828 746.517,924.684C745.068,923.817 744.634,923.239 744.344,921.866C744.344,921.504 744.344,921.143 744.199,920.782C744.416,919.048 744.561,918.036 745.213,916.229C745.648,916.302 746.228,916.663 746.735,916.663C747.822,916.88 748.836,916.88 749.996,916.808C751.517,916.374 752.242,916.229 753.111,915.724C754.416,914.857 755.647,913.989 756.662,912.544C758.039,911.171 758.256,910.16 758.836,908.787C759.126,908.136 759.27,907.125 759.198,906.619C759.198,906.041 759.126,905.463 759.126,905.102C759.198,904.234 758.908,904.09 758.691,903.584C758.473,903.223 758.328,902.861 757.966,902.717C757.676,902.283 757.024,901.633 756.227,901.416C754.923,900.838 753.184,900.766 751.807,901.127C750.575,901.199 749.633,901.85 748.546,902.428C747.822,902.934 746.952,903.44 746.228,904.162C745.503,904.74 744.996,905.391 744.416,905.969C744.778,906.691 743.909,906.691 743.619,907.125C743.474,907.269 743.329,907.558 743.184,907.703C742.75,908.353 742.315,909.004 742.17,909.654C741.3,911.099 740.648,912.327 740.213,913.556C739.706,915.146 739.271,916.88 738.909,918.108C738.402,920.637 738.837,921.215 738.837,921.432L738.837,921.866C738.909,922.877 739.416,923.961 739.706,925.045C739.996,925.406 740.141,925.695 740.286,925.912C740.576,925.695 740.721,925.985 740.938,926.563C741.373,926.852 742.025,927.502 742.605,927.719C743.112,928.08 743.547,928.369 744.126,928.369C745.068,928.73 745.503,928.73 746.155,928.803ZM746.155,913.628C747.097,911.388 748.112,909.293 749.633,907.269C750.503,906.041 751.59,904.885 752.749,904.451C753.474,904.162 753.908,904.162 754.343,904.234C754.995,904.668 755.068,905.318 754.633,906.474C754.416,907.269 753.691,908.787 752.749,909.943C752.677,910.232 752.677,910.81 752.169,910.738C751.952,910.81 751.517,911.46 751.3,911.533C750.14,912.544 749.416,913.195 747.894,913.628C747.242,913.773 746.952,913.845 746.155,913.628ZM758.473,918.831C759.126,918.831 759.126,918.831 759.633,918.036C759.633,917.891 759.56,917.891 759.27,917.891C759.198,918.108 758.546,918.47 758.473,918.831Z" style="fill:rgb(218,62,14);fill-rule:nonzero;stroke:rgb(218,62,14);stroke-width:2.2px;stroke-linecap:butt;"/>
            <path d="M812.746,930.537C813.326,930.248 813.978,930.32 814.195,930.32C814.557,930.248 814.92,929.887 814.92,929.67C814.92,928.947 815.065,927.936 815.065,927.141C815.21,925.912 815.21,924.684 815.21,923.528C815.21,921.866 815.21,920.276 815.354,918.759C815.427,918.18 814.92,917.891 815.499,917.169C815.717,914.857 815.934,912.4 816.296,910.16C816.514,908.064 816.949,905.607 817.238,903.44C817.528,902.356 817.673,901.199 817.818,900.188C817.891,899.248 818.398,898.165 818.543,897.153C818.905,895.13 819.63,892.89 820.064,890.794C820.427,889.277 820.934,887.759 821.079,886.242C821.151,886.025 821.151,885.953 821.006,885.88C820.572,883.857 820.427,883.496 818.47,884.074C818.253,884.074 817.891,884.074 817.601,884.218C817.238,884.218 816.949,884.218 816.514,884.724C816.079,885.953 814.92,887.181 814.63,888.699C814.34,889.349 813.615,889.71 813.326,890.722L812.384,892.528C812.021,893.179 811.876,893.757 811.442,894.335C811.152,894.768 810.862,895.419 810.572,895.925C810.137,896.864 809.558,898.02 808.978,898.67C808.833,899.032 808.543,899.393 808.108,900.26C807.601,901.055 807.167,902.283 806.587,903.295C806.152,904.09 805.645,905.029 805.21,905.752C804.558,906.474 804.341,907.269 803.978,907.92C803.978,908.353 803.761,908.642 803.471,908.931C802.819,909.509 802.602,910.16 802.167,910.81C801.007,912.906 799.993,915.001 798.399,916.808C798.109,917.024 797.964,917.458 797.674,917.747C796.805,919.048 795.935,920.493 794.921,921.504C793.761,922.661 792.457,924.539 791.37,924.178C791.298,924.106 791.153,923.961 791.08,923.672C790.646,922.733 790.935,921.432 790.863,920.204C791.153,917.169 791.877,913.989 792.675,911.099C793.182,909.293 793.616,907.558 794.051,905.752C794.631,903.873 795.211,902.067 795.863,900.405C795.356,899.971 796.08,899.827 796.153,899.393C796.805,897.587 797.529,895.78 798.326,893.901C798.834,892.384 799.631,891.083 799.848,889.566C799.703,889.06 799.703,888.626 799.341,888.048C798.761,887.398 798.037,888.121 798.109,887.253C797.892,887.181 797.384,887.109 796.95,887.181C796.08,887.253 795.283,887.831 794.776,888.699C794.196,889.277 794.196,889.566 794.051,889.927C792.819,892.023 792.312,894.335 791.443,896.286C790.646,898.092 790.211,899.682 789.704,901.416C788.907,903.656 788.254,905.969 787.675,908.425C787.385,910.16 786.805,911.822 786.515,913.556L786.37,913.845C786.226,915.724 785.863,917.169 785.791,918.759C785.718,920.493 785.936,922.01 786.298,923.528C786.588,924.684 787.168,925.695 787.602,926.563C788.037,927.141 788.544,927.502 789.196,927.863C789.704,928.08 790.283,928.369 790.935,928.441C792.022,928.441 792.747,928.73 794.051,927.936C794.631,927.719 794.848,927.502 795.066,927.285C796.153,926.635 797.167,925.768 798.109,924.828C799.123,923.817 800.065,922.661 800.935,921.215C801.08,921.071 801.297,920.782 801.442,920.565C802.312,919.409 803.109,918.18 803.906,916.88L805.5,914.206C806.732,912.4 807.601,910.232 808.906,908.425C809.848,906.908 811.731,903.223 812.601,901.705L812.239,903.656C812.166,904.234 812.239,904.523 812.166,904.668C811.804,905.318 811.587,905.896 811.514,906.619C811.442,908.064 811.152,909.509 811.007,910.955C810.862,912.111 810.645,913.339 810.5,914.568C810.282,916.229 810.572,917.458 810.282,918.831C810.21,920.204 810.137,921.432 810.21,922.733C810.282,923.961 810.427,925.117 810.5,926.346C810.572,927.213 810.717,927.936 810.934,928.514C811.152,929.164 811.514,929.019 812.021,929.308C812.239,929.67 812.239,930.32 812.746,930.537Z" style="fill:rgb(218,62,14);fill-rule:nonzero;stroke:rgb(218,62,14);stroke-width:2.2px;stroke-linecap:butt;"/>
            <path d="M831.296,930.537C832.02,930.176 832.31,929.742 832.6,929.308L832.672,928.947C832.89,928.73 832.962,928.441 833.035,927.936C833.18,926.707 833.614,925.045 833.977,923.311C834.411,921.071 835.064,918.759 835.353,917.241L835.571,917.024C835.716,916.808 836.803,916.663 837.02,916.808C837.455,917.241 837.745,917.602 837.817,918.108C838.614,919.698 839.556,921.071 840.353,922.372C840.426,922.661 841.223,922.95 840.933,923.311C841.368,924.25 842.02,925.479 842.31,926.129C842.962,926.852 843.396,927.502 843.831,928.514C845.498,928.947 846.657,929.67 848.541,928.803C848.686,928.441 849.193,928.08 849.266,927.574L849.121,927.285C849.048,926.996 848.831,926.707 848.686,926.563C848.396,925.695 847.889,925.117 847.527,924.467C846.802,923.239 845.933,921.793 844.918,919.842C844.266,918.47 843.469,917.169 842.889,916.013C842.672,915.796 842.527,915.579 842.744,915.362C844.338,914.568 845.788,913.773 847.454,912.978C848.179,912.689 849.193,912.038 849.918,911.533C851.295,910.593 852.889,909.654 854.193,908.136C855.352,906.908 856.584,905.752 857.381,904.451C858.323,903.223 858.975,901.705 859.7,900.26C860.135,899.248 860.714,897.803 860.859,896.647C861.222,895.419 861.294,894.19 861.294,892.962C861.149,890.433 859.7,888.121 857.816,886.531C856.512,885.591 855.207,885.013 853.758,884.363C852.309,883.857 850.715,883.785 848.759,883.64L846.947,883.64C845.933,883.64 844.846,883.785 843.759,883.857C842.889,884.074 842.527,884.218 841.657,884.218C841.368,884.218 841.295,884.218 841.15,884.363C839.846,884.724 838.687,885.013 837.02,885.88L836.44,886.025C835.064,886.675 833.614,887.542 832.093,888.482C831.368,888.915 830.861,889.493 830.426,890.216C830.281,890.794 830.136,891.3 830.281,891.733C830.426,892.528 831.875,892.745 831.368,893.468C831.658,893.757 831.73,893.757 832.165,893.757C832.31,893.757 832.527,893.757 832.962,893.323C834.267,892.528 834.629,892.312 835.716,891.733C835.933,892.023 835.788,892.312 835.788,892.528C835.498,893.323 835.209,894.19 835.064,895.346C834.267,898.02 833.614,900.405 833.035,903.223C832.672,904.523 832.238,905.752 832.093,907.197C831.803,908.787 831.368,910.304 830.933,911.822C830.933,912.038 830.861,912.4 830.499,912.761C829.629,913.339 828.76,913.195 827.673,913.339C827.455,913.845 828.107,913.845 828.107,914.206C827.963,914.423 827.745,914.568 827.89,914.857L828.542,915.362L828.832,915.94C829.194,916.591 829.846,916.591 830.136,916.663C829.702,918.614 829.267,920.782 828.832,923.094C828.542,924.901 827.963,926.852 827.818,927.863C827.818,928.803 828.325,929.67 829.194,929.887C829.846,930.176 830.571,930.609 831.296,930.537ZM836.585,911.822C836.658,911.388 836.803,910.955 836.875,910.593L837.092,908.931C837.527,906.908 838.107,905.029 838.542,903.006C838.976,901.127 839.556,899.321 840.063,897.514C840.571,895.346 841.15,893.179 841.802,890.866C842.02,890.288 842.165,889.566 842.527,888.988C843.034,888.626 843.614,888.41 844.338,888.121C846.078,887.759 847.889,887.542 849.193,887.759L850.353,887.759C851.005,887.759 851.874,887.831 852.599,888.265C852.961,888.41 853.324,888.482 853.831,888.626C854.773,888.988 855.063,889.349 856.077,890.144C856.584,890.794 857.019,892.023 856.947,893.323C856.874,895.13 856.077,897.37 855.207,898.959C854.628,899.827 854.193,900.549 853.541,901.199C852.599,902.572 851.44,903.801 850.353,904.885C850.28,905.752 849.193,905.896 848.686,906.258C848.179,906.836 847.454,907.269 846.875,907.703C844.483,909.076 842.455,910.232 839.918,911.099C838.832,911.46 837.745,911.677 836.585,911.822Z" style="fill:rgb(218,62,14);fill-rule:nonzero;stroke:rgb(218,62,14);stroke-width:2.2px;stroke-linecap:butt;"/>
            <path d="M864.772,930.32C865.642,930.176 866.221,930.031 867.091,929.742C868.25,929.381 869.337,929.308 870.497,928.947C871.873,928.514 873.467,928.369 874.989,928.152C875.351,928.152 875.714,927.574 876.076,928.08C877.018,927.936 877.815,927.719 878.54,927.574C880.424,927.285 881.945,927.141 883.612,926.852C884.481,926.129 884.554,926.129 884.481,925.479C884.554,924.684 884.626,923.817 884.191,923.094C883.974,922.444 883.249,921.866 882.452,921.793C881.945,921.793 881.366,921.866 880.858,921.866C879.192,922.01 877.235,922.083 875.641,922.661C875.351,922.661 874.844,922.733 874.482,922.733C873.033,922.877 871.439,923.094 870.134,923.528C869.41,923.6 868.83,923.672 868.468,923.817C868.468,922.733 868.54,922.01 868.395,921.504C868.757,921.071 868.757,920.637 868.902,920.059C868.975,919.626 868.975,919.264 868.975,918.759C869.265,917.458 869.555,915.796 869.844,914.423C870.497,912.544 870.931,910.738 871.366,908.931C871.728,907.558 872.018,906.33 872.38,905.029C872.888,903.584 873.322,902.067 873.902,900.549C874.409,898.67 875.062,896.864 875.641,895.057C875.859,894.118 876.293,893.179 876.583,892.312C876.293,891.95 876.945,891.517 877.018,891.155C877.525,889.855 877.815,888.915 878.105,888.121C878.395,886.892 878.467,886.314 878.467,885.88C878.032,885.23 877.887,884.724 877.09,884.652C876.366,884.508 875.786,884.363 875.062,884.508C873.975,884.652 873.178,885.086 872.453,886.242C872.38,886.675 871.873,887.759 871.583,888.988C871.149,890.144 870.859,891.155 870.569,891.661C869.989,893.612 869.555,895.346 868.902,897.225C868.685,897.587 869.192,898.165 868.468,898.454C867.96,899.899 867.598,901.416 867.163,902.861C866.946,903.656 866.656,904.523 866.584,905.391C866.076,906.836 865.714,908.425 865.279,909.871C865.062,910.955 864.845,912.111 864.482,913.267C864.048,915.146 863.613,917.241 863.251,919.048C862.888,920.926 862.888,922.95 862.816,924.684L862.816,925.045C862.309,925.695 861.874,925.695 861.729,926.129C861.584,926.635 861.584,927.213 861.801,927.863C861.801,928.73 862.019,929.308 862.598,929.887C863.106,930.32 864.048,930.32 864.772,930.32Z" style="fill:rgb(218,62,14);fill-rule:nonzero;stroke:rgb(218,62,14);stroke-width:2.2px;stroke-linecap:butt;"/>
            <path d="M893.974,914.495C894.771,914.495 895.495,914.423 896.437,914.495C898.176,914.495 899.408,914.423 901.22,914.423C901.872,914.423 902.741,913.989 903.176,913.556C903.973,912.761 904.263,912.544 904.19,911.677C904.046,911.533 903.973,911.099 903.756,910.738C903.176,909.943 902.596,909.726 901.364,909.871C900.712,909.871 900.133,909.726 899.553,909.871C898.828,909.943 898.176,909.726 897.452,909.726C896.51,909.726 895.785,909.871 894.916,909.871C894.698,909.943 894.408,910.16 894.191,910.16C893.104,910.232 892.307,910.232 891.582,911.099C891.148,911.388 890.93,912.038 890.568,912.4C890.858,912.689 891.22,912.761 891.148,913.195C890.785,913.267 890.713,913.556 890.568,913.773C890.93,913.989 891.003,914.206 891.22,914.423C892.307,914.495 893.032,914.568 893.974,914.495Z" style="fill:rgb(218,62,14);fill-rule:nonzero;stroke:rgb(218,62,14);stroke-width:2.2px;stroke-linecap:butt;"/>
            <path d="M916.871,930.031C917.378,929.887 917.885,930.176 918.537,930.031C920.277,929.887 922.088,929.67 923.972,928.947C927.088,928.08 930.131,926.635 932.957,924.684C933.609,924.106 934.479,923.311 935.058,922.661C935.493,922.083 935.711,921.504 935.348,921.504L934.696,922.01C934.624,921.866 934.769,921.215 936,921.215C937.377,920.204 937.739,918.614 937.957,917.241C938.319,916.302 938.247,915.435 938.319,914.495C938.174,913.845 938.102,913.267 938.174,912.689C937.957,912.038 937.739,911.677 937.377,911.388C937.015,910.738 937.305,910.16 936.797,909.654C936.145,908.787 935.566,908.136 934.841,907.775C933.899,907.125 932.667,906.33 931.001,905.896C928.537,905.102 925.928,904.451 923.102,904.09L920.349,903.44C918.827,902.934 918.393,901.994 919.045,900.549C919.697,899.248 920.421,897.803 921.726,896.792C922.885,895.635 924.044,894.552 925.494,893.468C925.783,893.179 926.146,892.312 926.87,892.384L929.117,890.866C930.783,889.566 932.667,888.41 934.841,887.831C935.638,887.542 936.508,887.181 936.435,886.314C936.218,885.591 935.566,885.953 935.638,885.23C935.638,885.013 934.841,884.508 933.754,884.508C933.029,884.363 932.16,884.363 931.435,884.508C930.566,884.652 929.696,884.724 928.972,885.013C927.378,885.447 925.928,886.025 924.697,886.892C923.755,887.398 922.958,888.048 922.088,888.482C922.016,889.06 921.363,888.988 921.001,889.277C918.827,890.794 917.088,892.528 915.494,894.552C914.697,895.419 914.19,896.358 913.538,897.37C913.175,898.092 912.886,899.032 912.886,899.971C912.668,901.416 912.958,902.283 913.32,903.006C913.538,903.801 914.335,904.234 914.77,905.029C915.132,905.391 915.567,905.752 916.074,905.969C917.378,906.691 918.972,907.269 920.711,907.558C922.233,907.775 923.61,908.064 925.131,908.425C926.581,908.642 927.45,909.004 928.827,909.509L929.551,909.654C929.551,909.943 929.914,910.304 930.348,910.521C931.001,910.955 931.363,911.533 931.435,912.327C932.015,913.267 932.232,914.495 931.798,915.435C931.798,916.013 931.725,916.591 931.363,917.024C930.276,919.337 928.175,921.504 925.131,923.094C924.697,923.311 924.334,923.528 923.9,923.6C922.668,924.106 921.436,924.684 920.132,925.045C919.552,925.334 919.117,925.406 918.537,925.768C917.668,925.695 916.871,925.695 916.074,925.985C915.639,926.129 915.277,926.129 914.77,926.129C912.596,926.274 910.277,926.129 908.393,925.406C907.886,925.479 907.741,925.768 907.813,926.129C907.958,926.274 908.176,926.563 907.958,926.707C907.886,927.213 908.393,927.502 908.755,927.574C909.408,927.574 908.755,927.936 909.263,928.152C909.48,928.369 910.784,927.863 910.494,928.08C910.422,928.369 909.915,928.08 909.842,928.514C910.567,928.803 911.291,928.947 911.799,929.019C912.451,928.947 912.523,928.441 912.741,928.514C913.465,928.73 913.031,929.381 913.465,929.67C914.335,930.031 915.132,929.67 915.929,929.597C916.219,929.67 916.436,930.031 916.871,930.031Z" style="fill:rgb(218,62,14);fill-rule:nonzero;stroke:rgb(218,62,14);stroke-width:2.2px;stroke-linecap:butt;"/>
            <path d="M947.087,930.537C947.521,930.537 947.956,930.537 948.391,930.248C948.971,929.67 949.333,929.019 949.768,928.369C950.13,927.502 950.492,926.563 950.927,925.695C951.507,924.25 952.086,922.877 952.884,921.793C954.043,919.915 955.057,918.036 956.289,916.302C958.173,913.556 960.202,910.955 962.376,908.498C962.811,908.136 963.173,907.703 963.608,907.486C963.97,907.703 963.753,908.136 963.753,908.498C963.39,909.943 963.39,911.46 963.173,912.906C962.883,914.495 962.883,915.94 962.738,917.53C962.376,919.337 962.811,921.071 963.1,922.877C963.173,923.239 963.173,923.672 963.535,923.961C964.26,924.539 964.477,925.334 964.912,925.985C965.347,926.852 966.144,927.502 967.013,927.863C968.173,928.441 969.477,928.803 971.143,928.514C972.665,928.369 973.68,927.936 974.694,926.852C975.056,926.563 975.853,925.985 976.143,925.695C977.158,924.901 977.013,924.684 977.303,924.467C978.1,923.528 978.897,922.372 979.694,921.432C980.708,920.204 980.998,919.264 982.012,917.891C982.302,917.458 982.375,917.024 982.302,916.663C982.012,916.374 981.433,916.591 981.578,916.013C982.012,915.579 981.94,916.808 982.302,916.302C982.375,916.229 982.447,916.013 982.447,915.796C982.52,915.724 982.52,915.579 982.81,915.579C982.954,915.94 982.882,916.302 983.317,916.229C983.389,915.94 984.186,915.001 984.549,913.989C985.563,912.544 986.288,910.955 986.577,910.232C985.998,909.726 986.288,908.425 985.491,908.787L984.983,908.787C984.983,908.642 984.983,908.425 985.346,908.136C985.418,908.064 985.853,907.269 985.273,907.269C985.128,907.125 984.259,908.425 983.751,908.931C983.317,909.509 982.447,910.593 982.085,911.171C982.23,911.822 981.433,911.966 981.36,912.111C981.143,912.4 980.926,912.689 980.636,912.906C978.969,915.362 977.737,916.88 976.216,918.831C974.839,920.637 973.39,922.299 971.651,923.817C970.999,924.467 970.274,924.901 969.477,925.045C968.897,924.539 968.752,924.106 968.535,923.6C968.1,921.071 968.1,918.397 968.462,915.796C967.955,915.435 968.607,915.073 968.752,913.845C969.042,911.966 969.259,909.943 969.622,908.136C969.839,906.258 969.767,904.451 968.607,903.006C968.39,902.861 968.028,902.861 967.665,902.572C967.013,902.067 965.999,902.067 965.129,902.356C965.057,902.428 964.839,902.428 964.55,902.428C963.173,902.572 962.086,903.223 961.072,904.234C960.057,905.318 958.97,906.33 958.101,907.269C957.086,908.425 956.217,909.509 955.42,910.593C954.188,911.966 953.173,913.339 952.231,914.857C951.869,915.435 951.434,916.013 951,916.663C950.71,916.88 950.637,917.169 950.13,917.747C950.203,916.374 950.565,915.94 950.637,915.362L951.869,910.738C952.304,909.293 952.666,907.775 952.956,906.474C953.536,904.523 954.043,902.572 954.695,900.621C954.985,899.538 955.782,897.731 955.854,897.225C955.999,896.792 955.782,896.214 956.289,895.635C956.579,895.057 956.724,894.479 956.869,893.829C957.449,892.312 957.159,892.384 958.028,890.722C958.608,889.277 958.318,889.493 959.188,887.759C959.622,886.892 959.695,886.242 960.13,885.23C960.637,884.146 960.927,883.207 960.13,882.557C959.26,881.689 958.39,881.617 956.869,882.051C955.854,882.34 955.275,883.279 954.623,884.363C954.623,884.652 954.478,884.724 954.478,885.013C953.318,887.398 952.449,890.144 952.231,890.722C951.579,892.384 951.217,893.179 951,894.19C951.579,894.552 950.71,895.13 950.492,895.78C949.623,898.598 949.333,899.827 948.463,902.428C947.884,904.523 947.304,906.619 946.724,908.425C946.724,908.787 946.435,909.004 946.435,909.365C946.29,910.521 946,911.46 945.855,912.544C945.42,914.206 944.84,916.013 944.623,917.891C944.406,921.071 943.754,924.467 943.826,927.502C944.043,928.514 944.84,929.381 945.565,930.176C946,930.537 946.652,930.609 947.087,930.537Z" style="fill:rgb(218,62,14);fill-rule:nonzero;stroke:rgb(218,62,14);stroke-width:2.2px;stroke-linecap:butt;"/>
            <path d="M988.027,928.73C988.969,928.514 990.563,928.152 991.939,927.213C992.737,926.635 993.461,926.274 994.041,925.695C994.765,925.406 994.983,924.828 995.345,924.25C996.36,923.528 997.157,922.444 997.881,921.432C999.185,919.626 1000.06,917.747 1000.71,915.796C1001.36,914.206 1001.72,912.761 1001.87,911.533C1001.87,911.388 1001.94,910.955 1001.79,910.738C1001.72,910.521 1001.72,910.232 1001.79,909.871C1002.01,909.004 1001.87,908.353 1001.58,907.486C1001,905.969 1000.85,904.668 999.258,903.584C998.968,903.295 998.751,903.223 998.243,902.934C997.446,902.428 996.722,902.428 995.925,902.428C995.418,903.006 994.983,902.428 994.476,902.572C993.896,902.572 993.244,902.717 992.592,902.934C992.229,902.717 991.795,902.572 991.505,902.572C989.983,902.717 989.331,902.861 987.519,904.234C986.07,905.607 984.621,907.703 984.041,908.931C983.607,909.509 983.607,909.943 983.751,910.16C983.679,910.304 983.751,910.593 983.244,910.81C982.665,912.111 982.302,913.339 981.795,914.712C981.36,916.808 980.708,918.831 980.926,920.637C980.708,922.95 981.288,924.828 982.23,926.274C982.665,926.707 983.027,927.285 983.534,927.719C983.969,927.936 983.896,928.152 984.621,928.369C985.78,928.803 986.94,928.803 988.027,928.73ZM986.65,924.828C986.143,924.178 986.143,923.094 986.143,922.083C986.143,921.504 985.853,920.926 986.215,920.204C986.65,918.108 986.94,916.302 987.592,914.206C988.027,912.544 988.751,910.81 989.766,909.004C990.635,907.269 991.867,905.752 993.534,905.102C994.548,904.885 995.2,905.607 995.49,906.33C995.78,906.691 995.852,907.125 996.07,907.486C996.142,908.136 996.287,908.787 996.287,909.509C996.504,910.593 996.36,911.533 996.142,912.544C996.36,913.339 995.707,914.134 995.418,915.001C994.983,915.94 994.838,916.808 994.186,917.891C993.461,919.626 991.939,921.215 990.708,922.733C989.983,923.6 989.258,924.178 988.244,924.828C987.592,925.045 987.157,925.117 986.65,924.828Z" style="fill:rgb(218,62,14);fill-rule:nonzero;stroke:rgb(218,62,14);stroke-width:2.2px;stroke-linecap:butt;"/>
            <path d="M1009.55,929.019C1009.76,928.947 1009.98,928.803 1010.27,928.514C1010.56,927.936 1010.85,927.719 1011.14,927.141C1011.43,926.346 1011.21,925.768 1011.58,925.045C1012.08,923.817 1012.45,922.444 1012.88,921.215C1013.61,918.975 1014.69,916.663 1015.92,914.423C1017.3,912.038 1018.61,909.943 1020.34,908.353C1021.29,907.486 1022.3,906.619 1023.17,906.041C1024.18,907.197 1025.13,907.703 1026.07,907.197L1026.65,906.908L1027.37,906.258C1027.52,905.969 1027.95,905.391 1027.95,904.451C1028.17,903.223 1027.74,903.006 1027.59,902.356C1026.5,901.199 1025.05,901.055 1023.02,901.489L1022.74,901.633C1021.58,901.85 1020.42,902.572 1019.33,903.584C1018.97,903.873 1018.82,904.74 1018.17,904.668C1017.23,905.607 1016.36,906.836 1015.34,908.064C1015.05,908.425 1015.05,908.642 1014.55,909.293C1014.33,909.365 1014.26,909.654 1013.39,911.099C1014.11,908.136 1014.04,907.92 1014.33,906.474C1014.55,905.391 1014.91,904.523 1014.69,903.584C1014.62,903.295 1014.26,903.006 1014.04,902.861C1013.46,902.861 1013.46,901.994 1012.01,902.572C1011.58,902.717 1010.63,903.006 1010.2,903.873C1009.84,904.451 1009.69,904.885 1009.55,905.752C1009.11,906.619 1009.33,906.836 1008.89,907.92C1009.26,908.064 1009.26,908.353 1009.04,908.498C1008.68,908.931 1008.89,909.943 1008.68,910.232C1008.46,911.388 1008.24,912.327 1007.95,913.339C1008.03,914.568 1007.59,915.724 1007.3,916.88C1007.52,917.891 1007.23,918.614 1007.16,919.409C1007.08,920.059 1007.37,920.637 1006.79,921.143C1006.5,922.661 1006.36,924.106 1006.43,925.406C1006.43,926.635 1006.87,927.863 1007.66,928.514C1008.24,928.947 1009.04,928.947 1009.55,929.019Z" style="fill:rgb(218,62,14);fill-rule:nonzero;stroke:rgb(218,62,14);stroke-width:2.2px;stroke-linecap:butt;"/>
            <path d="M1034.33,929.887C1035.63,930.031 1036.29,930.031 1036.79,929.887C1037.44,929.742 1038.46,929.597 1039.47,928.947C1040.2,928.514 1040.49,928.152 1041.36,927.719C1042.15,927.141 1042.95,926.346 1043.68,925.695C1044.4,924.901 1045.05,924.178 1045.92,923.311C1046.36,922.733 1047.01,922.01 1047.44,921.215C1048.1,920.637 1048.6,920.059 1049.04,919.409C1049.76,918.614 1050.2,918.108 1050.49,917.458L1052.59,914.495C1053.46,913.195 1053.89,912.111 1054.26,910.81C1054.4,909.943 1054.18,909.654 1054.26,909.004C1054.33,908.064 1053.96,907.269 1053.67,907.269C1053.39,907.269 1053.24,907.775 1052.81,908.136C1052.44,908.498 1051.94,909.509 1050.85,910.593C1050.34,911.388 1049.76,912.111 1049.04,912.906C1048.24,913.989 1047.37,915.001 1046.72,916.013C1045.63,917.241 1044.4,918.614 1043.24,920.059C1042.37,921.071 1040.92,922.083 1040.2,923.094C1038.75,924.25 1037.59,925.117 1036.29,925.768C1035.63,925.985 1035.05,925.912 1034.62,925.768C1034.33,925.479 1033.97,925.045 1034.11,924.539C1033.89,923.817 1033.82,923.094 1033.82,922.444C1033.82,920.782 1033.89,919.264 1034.55,917.169C1034.69,915.94 1035.05,914.568 1035.27,912.978C1035.49,912.038 1035.92,910.955 1036.07,909.943C1036.36,908.787 1036.58,907.775 1036.94,906.908C1037.66,906.691 1038.6,906.619 1039.4,906.619C1040.27,906.474 1041.29,906.474 1042.23,906.33C1043.24,906.258 1043.75,906.258 1044.4,905.969C1044.76,905.463 1045.2,905.029 1045.56,904.162C1045.63,903.873 1045.63,903.656 1045.63,903.584C1045.49,902.934 1045.41,902.717 1045.05,902.356C1044.4,902.067 1043.68,902.067 1042.95,902.283C1042.01,902.356 1041.07,902.356 1040.2,902.356C1039.62,902.356 1039.33,902.428 1038.75,902.428C1039.11,901.127 1039.62,899.899 1039.84,899.032C1040.27,898.02 1040.78,896.864 1041.14,895.78C1040.85,895.13 1041.5,895.419 1041.94,893.901C1043.02,891.517 1042.15,892.962 1043.24,890.722C1043.68,889.927 1043.97,889.349 1044.11,888.915C1044.26,888.121 1043.82,887.542 1043.24,886.82C1043.24,886.675 1042.95,886.675 1042.81,886.675C1041.79,886.531 1041.14,886.459 1040.78,886.459C1040.2,886.459 1039.76,886.675 1039.04,887.181C1038.53,887.831 1038.1,888.699 1037.81,889.493C1037.44,890.216 1037.15,890.794 1036.94,891.517C1036.87,891.95 1036.72,892.384 1036.43,892.745L1035.92,893.901C1035.56,895.13 1034.98,896.358 1034.55,897.587C1033.89,898.959 1033.53,900.26 1033.02,901.633C1032.88,902.067 1032.88,902.356 1032.52,902.934C1031.21,903.223 1030.63,903.295 1029.04,903.656C1028.46,903.873 1027.66,904.09 1027.01,904.451C1026.72,904.74 1026.87,905.752 1026.14,905.969C1026,906.836 1025.85,907.92 1027.01,907.775C1027.37,907.775 1027.88,907.703 1028.97,907.558C1030.05,907.486 1029.62,907.269 1031.07,907.269C1030.49,908.498 1029.98,911.46 1029.98,911.677C1029.47,913.195 1029.11,914.857 1028.97,916.591C1028.75,918.397 1028.6,920.059 1028.6,921.432C1028.53,921.793 1028.53,922.083 1028.68,922.444C1028.68,923.094 1028.89,923.961 1029.18,925.045C1029.55,926.129 1030.05,927.141 1031.07,927.936C1031.58,928.514 1032.44,929.164 1033.31,929.597C1033.75,929.67 1033.89,929.742 1034.33,929.887Z" style="fill:rgb(218,62,14);fill-rule:nonzero;stroke:rgb(218,62,14);stroke-width:2.2px;stroke-linecap:butt;"/>
            <path d="M1055.34,930.248C1056.07,930.32 1057.52,930.248 1058.67,930.031C1059.83,929.742 1060.99,929.381 1061.79,928.947L1063.31,928.152L1063.75,927.936C1064.69,927.502 1065.49,926.707 1066.36,926.129C1066.57,925.912 1066.94,925.334 1067.3,925.334C1068.31,924.467 1069.4,923.528 1070.41,922.299C1071.21,921.432 1071.79,920.493 1072.73,919.337C1073.31,918.759 1074.69,917.024 1075.63,915.362C1076.57,913.773 1077.52,912.111 1077.66,911.677L1077.81,910.738C1077.88,910.232 1078.24,909.726 1077.95,909.365C1077.95,908.787 1077.37,908.931 1077.37,908.425C1077.52,908.064 1077.88,907.486 1077.08,907.269C1076.64,907.558 1076.93,907.775 1076.57,908.136C1076.36,908.353 1075.34,909.726 1074.33,911.171C1073.38,912.689 1072.22,914.206 1071.86,914.568C1070.7,916.013 1069.54,917.53 1068.31,918.759C1067.44,920.059 1066.43,920.926 1065.34,921.866C1064.62,922.661 1063.6,923.239 1062.95,923.961C1062.08,924.828 1060.41,925.912 1058.17,926.707C1057.44,926.852 1056.65,926.996 1056.07,926.852C1055.27,926.707 1054.62,926.129 1054.33,925.406C1053.89,925.479 1053.89,924.828 1053.89,924.467C1053.46,923.6 1053.39,922.661 1053.31,921.649C1053.46,920.276 1053.6,918.975 1053.89,917.747C1053.96,917.458 1054.04,917.169 1054.33,916.88C1055.63,917.169 1056.79,917.024 1057.44,917.024C1058.31,916.88 1059.04,916.808 1059.91,916.591C1061.21,916.013 1062.23,915.435 1063.17,914.857C1064.33,913.989 1065.34,912.978 1066.43,911.822C1067.37,910.593 1068.17,909.076 1068.53,907.775C1068.67,906.691 1068.67,905.896 1068.53,904.74C1068.38,904.234 1067.66,904.234 1067.95,903.44C1067.66,902.717 1067.3,902.283 1066.5,901.705C1065.27,901.055 1064.26,900.621 1062.73,900.621C1061.14,900.766 1060.12,901.055 1058.38,902.067C1057.66,902.428 1056.79,903.295 1056.07,903.801C1055.56,904.668 1054.84,905.102 1054.26,905.896C1053.53,906.691 1052.59,907.92 1051.86,909.293C1050.99,910.521 1050.41,911.822 1049.84,913.267C1048.96,915.362 1048.53,917.458 1048.17,919.264C1047.95,921.071 1048.17,922.877 1048.53,924.467C1048.82,925.768 1049.55,926.852 1050.49,928.08C1051.36,928.803 1052.01,929.308 1052.73,929.67C1053.31,930.031 1054.4,930.176 1055.34,930.248ZM1055.56,913.628C1055.99,912.4 1056.65,910.81 1057.81,909.293C1058.38,908.136 1059.4,907.125 1060.12,906.041C1060.92,905.391 1061.65,904.668 1062.23,904.451C1063.31,904.09 1063.89,904.451 1063.82,906.041C1063.75,907.269 1063.1,908.425 1062.15,909.509C1061.36,910.521 1060.41,911.533 1059.18,912.111C1058.1,912.978 1056.57,913.339 1055.56,913.628Z" style="fill:rgb(218,62,14);fill-rule:nonzero;stroke:rgb(218,62,14);stroke-width:2.2px;stroke-linecap:butt;"/>
            <path d="M1098.6,930.32C1099.11,930.32 1099.83,930.248 1099.76,930.248C1101.06,930.031 1102.8,929.019 1103.89,927.936C1104.33,927.502 1104.76,926.996 1105.34,926.635C1106.5,925.479 1106.43,925.334 1106.72,925.045C1107.66,923.961 1108.45,922.877 1109.11,921.793C1110.19,920.565 1110.27,919.842 1111.28,918.47C1111.64,917.891 1112.08,917.241 1112.51,916.663C1112.59,916.591 1112.59,916.013 1113.31,915.435C1113.24,915.146 1113.45,914.568 1113.82,914.423C1115.05,912.761 1115.19,912.038 1115.63,911.099C1115.63,909.871 1115.85,909.004 1115.19,909.004C1115.34,908.353 1115.19,907.269 1114.61,907.269C1114.54,907.125 1113.67,908.498 1113.24,909.004C1112.73,909.654 1111.86,910.81 1111.57,911.46C1111.64,912.038 1110.99,912.111 1110.77,912.4C1110.63,912.689 1110.27,912.906 1110.12,913.267C1108.38,915.796 1107.3,917.602 1105.48,919.409C1104.11,921.432 1102.73,923.094 1101.06,924.684C1100.19,925.406 1098.67,926.707 1098.02,926.635C1097.15,926.635 1096.86,925.768 1096.72,925.334C1096.35,923.817 1096.28,923.094 1096.28,920.782C1096.28,919.698 1096.43,918.47 1096.64,917.458C1096.72,917.024 1096.43,916.808 1096.28,916.374C1096.79,916.013 1096.86,915.579 1096.93,915.146C1097.15,913.773 1097.37,912.4 1097.66,910.955C1098.09,909.076 1098.38,907.486 1098.6,905.752C1098.6,905.463 1098.24,905.318 1098.6,904.74C1098.53,903.873 1098.38,903.584 1098.17,902.934C1097.22,901.633 1096.06,901.199 1094.62,901.199C1093.67,901.416 1092.73,901.705 1091.93,902.283C1091.21,902.572 1090.41,902.861 1089.9,903.44C1087.51,905.607 1085.41,908.136 1083.17,910.955C1082.3,912.111 1081.43,913.339 1080.7,914.423C1080.63,914.568 1080.34,914.857 1079.98,914.857C1080.2,913.339 1080.78,911.966 1081.28,910.593C1082.01,908.642 1082.8,906.33 1083.31,904.523C1083.75,903.801 1083.82,903.295 1083.67,902.934C1083.89,902.572 1083.38,902.067 1083.02,901.633C1082.01,902.283 1082.08,901.416 1081.86,901.416C1080.85,901.199 1079.54,901.489 1078.96,902.428C1077.95,904.162 1077.59,905.102 1077.08,906.908C1076.79,907.486 1076.43,908.931 1076.43,909.076L1075.99,910.593C1075.99,910.521 1075.12,912.111 1075.12,913.339C1074.18,916.374 1074.18,917.169 1073.89,917.747C1073.89,918.108 1073.67,918.397 1073.75,918.759C1073.82,919.337 1073.6,919.698 1073.31,920.204C1072.95,922.083 1072.59,924.178 1072.59,926.274C1072.52,926.563 1072.81,926.635 1072.81,926.852C1073.46,927.213 1073.46,928.152 1074.25,928.514C1074.91,928.73 1075.78,928.514 1076.36,928.514C1077.52,927.719 1078.46,926.707 1078.82,925.334C1078.96,924.828 1079.33,924.25 1079.76,923.817C1080.99,921.793 1082.08,919.842 1083.6,917.602C1084.33,916.302 1085.99,913.556 1086.43,913.556C1087.95,911.46 1089.54,909.509 1091.57,907.703C1092.08,907.125 1092.73,906.691 1092.37,908.425C1091.93,910.232 1091.43,912.978 1091.07,915.94C1090.99,916.663 1090.99,917.169 1090.78,917.747C1090.7,919.409 1090.78,921.071 1090.85,922.877C1091.21,924.539 1091.72,925.912 1092.44,927.141C1092.8,927.213 1092.73,927.719 1093.02,927.936C1093.6,928.369 1094.04,928.803 1094.76,929.381C1096.06,930.248 1096.72,930.32 1098.6,930.32Z" style="fill:rgb(218,62,14);fill-rule:nonzero;stroke:rgb(218,62,14);stroke-width:2.2px;stroke-linecap:butt;"/>
            <path d="M1116.43,930.248C1117.15,930.32 1118.6,930.248 1119.76,930.031C1120.92,929.742 1122.08,929.381 1122.88,928.947L1124.4,928.152L1124.83,927.936C1125.77,927.502 1126.57,926.707 1127.44,926.129C1127.66,925.912 1128.02,925.334 1128.38,925.334C1129.4,924.467 1130.48,923.528 1131.5,922.299C1132.29,921.432 1132.87,920.493 1133.82,919.337C1134.4,918.759 1135.77,917.024 1136.71,915.362C1137.66,913.773 1138.6,912.111 1138.74,911.677L1138.89,910.738C1138.96,910.232 1139.32,909.726 1139.03,909.365C1139.03,908.787 1138.45,908.931 1138.45,908.425C1138.6,908.064 1138.96,907.486 1138.16,907.269C1137.73,907.558 1138.02,907.775 1137.66,908.136C1137.44,908.353 1136.42,909.726 1135.41,911.171C1134.47,912.689 1133.31,914.206 1132.95,914.568C1131.79,916.013 1130.63,917.53 1129.4,918.759C1128.53,920.059 1127.51,920.926 1126.42,921.866C1125.7,922.661 1124.69,923.239 1124.03,923.961C1123.16,924.828 1121.5,925.912 1119.25,926.707C1118.53,926.852 1117.73,926.996 1117.15,926.852C1116.35,926.707 1115.7,926.129 1115.41,925.406C1114.98,925.479 1114.98,924.828 1114.98,924.467C1114.54,923.6 1114.47,922.661 1114.4,921.649C1114.54,920.276 1114.69,918.975 1114.98,917.747C1115.05,917.458 1115.12,917.169 1115.41,916.88C1116.72,917.169 1117.88,917.024 1118.53,917.024C1119.4,916.88 1120.12,916.808 1120.99,916.591C1122.3,916.013 1123.31,915.435 1124.25,914.857C1125.41,913.989 1126.42,912.978 1127.51,911.822C1128.45,910.593 1129.25,909.076 1129.61,907.775C1129.76,906.691 1129.76,905.896 1129.61,904.74C1129.47,904.234 1128.74,904.234 1129.03,903.44C1128.74,902.717 1128.38,902.283 1127.59,901.705C1126.35,901.055 1125.34,900.621 1123.82,900.621C1122.22,900.766 1121.21,901.055 1119.47,902.067C1118.74,902.428 1117.88,903.295 1117.15,903.801C1116.64,904.668 1115.92,905.102 1115.34,905.896C1114.61,906.691 1113.67,907.92 1112.95,909.293C1112.08,910.521 1111.5,911.822 1110.92,913.267C1110.05,915.362 1109.61,917.458 1109.25,919.264C1109.04,921.071 1109.25,922.877 1109.61,924.467C1109.9,925.768 1110.63,926.852 1111.57,928.08C1112.44,928.803 1113.09,929.308 1113.82,929.67C1114.4,930.031 1115.48,930.176 1116.43,930.248ZM1116.64,913.628C1117.08,912.4 1117.73,910.81 1118.89,909.293C1119.47,908.136 1120.48,907.125 1121.21,906.041C1122.01,905.391 1122.73,904.668 1123.31,904.451C1124.4,904.09 1124.98,904.451 1124.9,906.041C1124.83,907.269 1124.18,908.425 1123.24,909.509C1122.44,910.521 1121.5,911.533 1120.27,912.111C1119.18,912.978 1117.66,913.339 1116.64,913.628Z" style="fill:rgb(218,62,14);fill-rule:nonzero;stroke:rgb(218,62,14);stroke-width:2.2px;stroke-linecap:butt;"/>
            <path d="M1138.16,928.803C1138.74,928.441 1139.47,928.369 1139.98,928.152C1140.56,927.863 1140.85,927.502 1140.92,926.852C1140.99,926.129 1141.35,925.334 1141.64,924.467C1141.79,923.311 1142.22,922.01 1142.58,920.782C1143.02,919.698 1143.38,918.759 1143.67,917.891C1143.82,917.241 1143.96,916.663 1144.47,916.013C1144.68,915.435 1144.98,914.857 1145.19,914.423C1145.56,913.773 1146.06,912.978 1146.28,912.689C1146.93,911.388 1147.58,910.593 1148.38,909.654C1149.18,908.498 1150.19,907.775 1150.99,906.908C1152.29,905.969 1153.16,905.463 1154.32,905.607C1154.39,905.752 1154.39,905.607 1154.54,905.607C1154.9,905.607 1155.12,905.029 1155.34,904.451C1155.19,904.234 1155.12,904.234 1154.9,904.162C1155.19,903.873 1155.19,903.801 1155.19,903.656C1155.19,903.44 1155.26,903.295 1154.83,903.006C1154.76,902.934 1154.32,902.861 1153.96,902.861C1153.6,902.717 1153.09,902.717 1152.73,902.861C1152.66,902.717 1152.51,902.717 1152.29,902.717C1151.42,902.861 1149.98,903.223 1149.11,903.801C1148.02,904.451 1147.15,905.102 1146.64,905.752C1146.06,906.258 1145.27,907.125 1144.76,907.92C1144.32,908.425 1143.89,909.004 1143.53,909.654C1143.09,910.16 1142.8,910.738 1142.51,911.171C1142.58,909.871 1143.09,907.703 1143.53,906.33C1143.82,905.102 1143.89,904.09 1144.11,902.861C1144.25,902.356 1143.96,902.283 1143.67,902.067C1143.38,901.633 1142.73,901.994 1142.37,901.416C1141.28,901.489 1140.12,901.489 1139.25,902.717C1138.82,903.44 1138.74,904.234 1138.67,905.029C1138.16,906.908 1137.73,908.787 1137.37,910.593C1137.08,911.822 1137.08,912.906 1136.93,914.134C1136.64,915.362 1136.5,916.591 1136.21,917.747C1136.13,918.397 1136.06,919.048 1135.85,919.698C1135.77,920.493 1135.63,921.143 1135.63,921.866C1135.41,922.661 1135.41,923.528 1135.41,924.178C1135.34,924.901 1135.34,925.479 1135.41,926.129L1135.34,926.563C1135.7,926.707 1136.06,926.635 1136.21,926.996C1136.42,927.285 1135.85,927.863 1136.21,928.08C1136.5,928.803 1137.44,928.514 1138.16,928.803Z" style="fill:rgb(218,62,14);fill-rule:nonzero;stroke:rgb(218,62,14);stroke-width:2.2px;stroke-linecap:butt;"/>
        </g>
    </g>
</svg>
